<svg fill="none" height="468" viewBox="0 0 526 468" width="526" xmlns="http://www.w3.org/2000/svg">
<path 
  d="m522.98 432.72c-.21-.71-.53-1.24-.84-1.74-.31-.49-.64-.92-.94-1.32-.61-.79-1.15-1.42-1.49-1.84-.78-.96-1.49-1.89-2.53-2.88-.39-.37-.78-.74-1.17-1.11-.19-.18-.38-.37-.55-.55-.09-.09-.16-.18-.24-.27s-.07-.08-.1-.13c-.13-.17-.07-.42.1-.53.05-.03.06-.05.16-.09.1-.05.21-.11.35-.16.25-.11.55-.19.84-.28l2.35-.58c.3-.08 1.18-.34 1.72-.71.32-.16.53-.4.76-.63.17-.26.32-.53.42-.84.26-.99-.21-1.95-1.12-2.61-.2-.18-.45-.34-.68-.49l-.42-.27-.79-.5c-2.81-1.74-4.96-3.96-5.88-6.97-.26-.78-.48-1.57-.68-2.38l-.26-1.08c-.1-.42-.21-.84-.35-1.21-.29-.75-.68-1.19-1.17-1.41l-.45-.18-.72.09c-.23.06-.45.01-.7.24-.24.14-.48.39-.72.64-.24.22-.47.55-.7.82-.13.16-.26.33-.39.5l-.31.43-.38.56-.37.57-.09.14-.03.05-.04.08c-.32.56-.78 1.3-1.09 2.02-.36.5-.73.99-1.12 1.48-1.66 2.14-3.46 4.14-5.21 6.41l-.37.51c-.07.1-.1.15-.2.3s-.19.29-.26.44c-.35.59-.5 1.21-.36 1.82.11.21.18.44.33.62l.2.29.27.24c.16.17.4.28.61.4.2.13.45.22.7.3.66.22 1.24.33 1.79.46.54.12 1.05.26 1.42.43.18.08.33.18.4.24.06.05.08.1.1.15.02.06.01.12-.01.18-.03.07-.13.33-.25.54-.24.44-.55.92-.88 1.38-.66.93-1.39 1.86-2.13 2.77s-1.5 1.8-2.3 2.67c-.41.46-.76.83-1.26 1.41-.78.88-1.27 1.9-.97 2.92.29.78.86 1.39 1.72 1.69.2.1.42.15.64.2l.33.08c.12.03.22.05.27.06.27.04.54.09.79.11 1.03.11 2 .15 2.97.19 1.93.06 3.84.07 5.77.08.21 0 .42.01.63.02.02 2.56.08 5.13.15 7.71v.26c.02.3 2.52.18 2.51-.12v-.25c-.08-2.5-.14-5-.16-7.52 1.96.06 3.92.09 5.91.04.77-.01 1.55-.03 2.31-.04.24-.01.84 0 1.82-.21.14-.04.27-.07.42-.11.17-.04.36-.14.54-.22.36-.17.7-.43.97-.76.55-.66.65-1.67.4-2.56zm-2.5.76c-.01.08-.07.14-.13.15-.04.01-.03 0-.12 0-.14.03-.32.05-.51.06-.78.06-1.72.02-2.64 0-2.29-.1-4.58-.04-6.87.07-.6-.09-1.7-.05-2.02.1-.8.05-1.61.09-2.42.14-1.62.09-3.24.08-4.83-.03-.79-.06-1.58-.14-2.31-.28-.45-.09-.46-.12-.61-.19-.11-.07-.21-.17-.21-.3 0-.2.21-.32.31-.4.57-.57 1.32-1.32 1.96-2.02.66-.72 1.29-1.46 1.88-2.22.6-.76 1.18-1.54 1.73-2.37.54-.85 1.08-1.65 1.5-2.85.19-.55.29-1.36.02-1.96-.13-.22-.22-.47-.38-.67-.17-.18-.32-.41-.51-.55-.37-.3-.72-.47-1.07-.62-.68-.27-1.3-.39-1.88-.52-.57-.12-1.12-.23-1.55-.37-.11-.04-.29-.13-.32-.28-.19-.02 1.13-1.57 2.15-2.61 2.04-2.15 4.22-4.41 5.65-7.17.21-.38.42-.76.63-1.06l.61-.88.31-.43.07-.08c.1-.11.18-.26.32-.31.11.06.12.2.15.32l.17.65c.12.48.26.95.42 1.43.3.93.66 1.91 1.17 2.83.99 1.84 2.47 3.39 4.13 4.52.75.52 1.53.97 2.3 1.39.38.21.75.42 1.12.63l.39.24c.09.07.18.13.26.21.21.17.3.49.07.69-.2.18-.48.24-.68.25-.03 0-.14.02-.27.04l-.36.06-.77.11c-.52.07-1.07.15-1.65.26-.52.13-1.03.24-1.63.57-.72.39-1.41 1.11-1.62 1.95-.26.85.04 1.76.58 2.49.16.21.22.27.32.39.1.11.18.2.27.3l.52.52c1.36 1.27 2.56 2.46 3.82 3.88.63.7 1.21 1.42 1.72 2.14.24.36.47.73.63 1.08.16.33.26.72.22.7z" 
  fill="#ffffff"/>
  <path 
    d="m98.77 450.96c-.21-.71-.53-1.24-.84-1.74-.31-.49-.64-.92-.94-1.32-.61-.79-1.15-1.42-1.49-1.84-.78-.96-1.49-1.89-2.53-2.88-.39-.37-.78-.74-1.17-1.11-.19-.18-.38-.37-.55-.55-.09-.09-.16-.18-.24-.27s-.07-.08-.1-.13c-.13-.17-.07-.42.1-.53.05-.03.06-.05.16-.09.1-.05.21-.11.35-.16.25-.11.55-.19.84-.28l2.35-.58c.3-.08 1.18-.34 1.72-.71.32-.16.53-.4.76-.63.17-.26.32-.53.42-.84.26-.99-.21-1.95-1.12-2.61-.2-.18-.45-.34-.68-.49l-.42-.27-.79-.5c-2.81-1.74-4.96-3.96-5.88-6.97-.26-.78-.48-1.57-.68-2.38l-.26-1.08c-.1-.42-.21-.84-.35-1.21-.29-.75-.68-1.19-1.17-1.41l-.45-.18-.72.09c-.23.06-.45.01-.7.24-.24.14-.48.39-.72.64-.24.22-.47.55-.7.82-.13.16-.26.33-.39.5l-.31.43-.38.56-.37.57-.09.14-.03.05-.04.08c-.32.56-.78 1.3-1.09 2.02-.36.5-.73.99-1.12 1.48-1.66 2.14-3.46 4.14-5.21 6.41l-.37.51c-.07.1-.1.15-.2.3s-.19.29-.26.44c-.35.59-.5 1.21-.36 1.82.11.21.18.44.33.62l.2.29.27.24c.16.17.4.28.61.4.2.13.45.22.7.3.66.22 1.24.33 1.79.46.54.12 1.05.26 1.42.43.18.08.33.18.4.24.06.05.08.1.1.15.02.06.01.12-.01.18-.03.07-.13.33-.25.54-.24.44-.55.92-.88 1.38-.66.93-1.39 1.86-2.13 2.77s-1.5 1.8-2.3 2.67c-.41.46-.76.83-1.26 1.41-.78.88-1.27 1.9-.97 2.92.29.78.86 1.39 1.72 1.69.2.1.42.15.64.2l.33.08c.12.03.22.05.27.06.27.04.54.09.79.11 1.03.11 2 .15 2.97.19 1.93.06 3.84.07 5.77.08.2 0 .41.01.61.02.02 2.57.11 5.17.17 7.76v.23c.01.27 2.52.15 2.51-.12v-.23c-.07-2.52-.15-5.03-.17-7.57 1.97.06 3.93.09 5.93.04.77-.02 1.55-.03 2.31-.04.24-.01.84 0 1.82-.21.13-.04.27-.07.42-.11.17-.04.36-.14.54-.22.36-.17.7-.43.97-.76.55-.66.65-1.67.4-2.56zm-2.5.77c-.01.08-.07.14-.13.15-.04.01-.03 0-.12 0-.14.03-.32.05-.51.06-.78.06-1.72.02-2.64 0-3.76-.17-7.51.08-11.31.31-1.62.09-3.24.08-4.83-.03-.79-.06-1.58-.14-2.31-.28-.45-.09-.46-.12-.61-.19-.11-.07-.21-.17-.21-.3 0-.2.21-.32.31-.4.57-.57 1.32-1.32 1.96-2.02.66-.72 1.28-1.46 1.88-2.22s1.18-1.54 1.73-2.37c.54-.85 1.08-1.65 1.5-2.85.19-.55.29-1.36.02-1.96-.13-.22-.22-.47-.38-.67-.17-.18-.32-.41-.51-.55-.37-.3-.72-.47-1.07-.62-.68-.27-1.3-.39-1.88-.52-.57-.12-1.12-.23-1.55-.37-.11-.04-.29-.13-.32-.28-.19-.02 1.13-1.57 2.15-2.61 2.04-2.15 4.22-4.41 5.65-7.16.21-.38.42-.76.63-1.06l.61-.88.31-.43.07-.08c.1-.11.18-.26.32-.31.11.06.12.2.15.32l.17.65c.12.48.26.95.42 1.43.3.93.66 1.91 1.17 2.83.99 1.84 2.47 3.39 4.13 4.52.75.52 1.53.97 2.3 1.39.38.21.75.42 1.12.63l.39.24c.09.07.18.13.26.21.21.17.3.49.07.69-.2.18-.48.24-.68.25-.03 0-.14.02-.27.04l-.36.06-.77.11c-.52.07-1.07.15-1.65.26-.52.13-1.03.24-1.63.57-.72.39-1.41 1.11-1.62 1.95-.26.85.04 1.76.58 2.49.16.21.22.27.32.39.1.11.18.2.27.3l.52.52c1.36 1.27 2.56 2.46 3.82 3.88.62.7 1.21 1.42 1.72 2.14.24.36.47.73.63 1.08.16.33.26.72.22.7z" 
    fill="#ffffff" />
  <path 
    d="m39.52 399.63c-.09-.37-.24-.74-.46-1.07-.14-.2-.25-.39-.43-.59-.15-.18-.23-.25-.35-.37-.22-.22-.44-.42-.66-.62-.44-.38-.87-.73-1.28-1.07-.27-.21-1.04-.82-2.06-1.62-.47-.39-1-.84-1.4-1.31-.2-.23-.37-.47-.46-.66-.09-.21-.09-.26-.08-.35.04-.06.04-.13.18-.25.12-.12.33-.25.56-.36.46-.24 1.05-.41 1.59-.57.58-.16 1.11-.31 1.57-.44.25-.08.48-.15.7-.22.11-.04.22-.08.32-.12.14-.06.29-.11.41-.18l.61-.35c.18-.13.34-.3.5-.44.15-.16.23-.36.35-.53.09-.19.15-.4.23-.6.14-.98-.42-1.93-1.25-2.62-.59-.5-1.15-.85-1.78-1.21-1.38-.76-2.76-1.38-4.14-2.15-.41-.23-.82-.46-1.2-.71-.47-.31-.53-.36-.62-.45s-.19-.21-.15-.34c.05-.13.2-.18.31-.22l.27-.06c.26-.05.52-.1.79-.15l1.69-.26c.58-.09 1.17-.19 1.79-.33.31-.07.63-.16.96-.27.39-.13.93-.39 1.31-.69.6-.46 1.02-1.16.98-1.91.03-.75-.4-1.43-.95-1.99l-.42-.4-.29-.23c-.2-.16-.38-.29-.56-.43l-1.07-.79c-1.91-1.41-3.59-2.96-5.01-4.78-.7-.91-1.33-1.87-1.88-2.89-.57-1.03-1-2.06-1.62-3.31-.16-.31-.36-.65-.63-1.02-.13-.16-.39-.48-.63-.64-.24-.19-.5-.35-.8-.46-.28-.12-.6-.12-.9-.18-.31-.01-.62.02-.92.09-.27.07-.43.11-.65.2s-.45.18-.64.3c-.82.46-1.42 1.11-1.87 1.76-.44.65-.75 1.33-1.01 1.99-.25.65-.42 1.36-.58 1.79-.17.5-.39.99-.65 1.46-.26.48-.54.95-.87 1.41-.16.23-.33.46-.5.68l-.13.17-.04.05-.07.09c-.72 1.03-2.19 2.31-2.83 3.38-.38.31-.76.64-1.12.99-.51.51-1.03 1.02-1.52 1.63-.24.31-.49.63-.71 1.03-.12.18-.21.42-.31.67-.12.26-.12.6-.18.89 0 .26.04.52.08.78.1.24.18.48.31.71.16.22.29.44.45.58.31.32.64.55.95.74.63.37 1.22.58 1.76.79.54.2 1.04.39 1.41.6.19.09.34.21.39.27.07.04.07.11.11.17.01.11.02.12-.05.32-.08.18-.23.41-.41.63-.37.45-.88.91-1.42 1.34-.8.65-1.67 1.26-2.55 1.94-.24.18-.41.32-.7.56-.36.31-.69.63-.98.97-.55.69-.83 1.42-.6 2.21.36 1.01 1.38 1.46 2.61 1.63.71.1 1 .1 1.37.12l1.07.03 1.03.03h.28l.11.03c.13.02.29.03.35.15.01.12-.11.2-.19.27l-.13.09-.46.3c-.94.6-1.95 1.17-2.96 1.75-1.02.59-2.04 1.18-3.07 1.87-.54.39-.92.58-1.84 1.49-.73.8-1.16 1.69-.95 2.62.15.32.27.66.49.91.21.26.52.44.83.63.36.13.73.28 1.11.36l.58.1c.19.03.42.08.5.08.95.11 1.84.14 2.73.17 1.78.05 3.53.06 5.29.06 1.94-.01 3.89-.02 5.84-.03-.03 4.15.1 8.36.17 12.54v.33c.01.39 2.52.26 2.51-.12v-.33c-.07-4.14-.2-8.26-.17-12.44.74 0 1.48 0 2.22-.01 1.92.01 3.85.03 5.81-.04.98-.03 1.97-.09 3.02-.24.26-.03.53-.09.81-.14.13-.02.27-.06.43-.11.23-.07.46-.12.65-.22.84-.34 1.45-.95 1.72-1.75.07-.38.1-.75.02-1.13zm-4.61.46c-1.08.14-2.23.22-3.37.3-2.31.14-4.65.28-7 .42-2.74.14-5.46.15-8.18.08-1.36-.03-2.71-.09-4.06-.17-.67-.04-1.34-.09-2.01-.15l-.98-.11-.47-.07-.21-.03-.08-.02c-.2-.07-.3-.11-.31-.25.02-.11.12-.17.18-.21-.09.08.51-.39.93-.65.91-.6 1.9-1.18 2.89-1.78 1-.6 2.01-1.2 3.02-1.89l.38-.27.27-.2.33-.25c.43-.33.83-.68 1.14-1.05.63-.75.85-1.44.63-2.29l-.03-.06c-.41-.91-1.31-1.28-2.54-1.43-.3-.03-.61-.05-.92-.06h-.44l-.27-.01h-1.05-1.01l-.7-.03c-.17-.02-.41-.03-.5-.21-.03-.24.21-.39.36-.52.54-.44 1.22-.93 1.88-1.4.67-.48 1.35-.97 2.03-1.54.67-.6 1.4-1.19 1.95-2.33.11-.25.2-.51.26-.86.05-.32.03-.64-.01-.96-.12-.52-.35-1.03-.72-1.43-.19-.2-.35-.36-.52-.48-.17-.13-.34-.25-.5-.34-.65-.38-1.23-.6-1.76-.82-.53-.21-.99-.41-1.32-.61-.16-.1-.28-.19-.34-.26-.07-.09-.03-.02-.06-.05.02-.03-.05 0 0-.08.02-.06.04-.15.11-.26.05-.1.1-.2.18-.32.28-.45.68-.94 1.1-1.42.55-.65 1.14-1.32 1.73-2 1.08-.76 2.16-2 2.92-2.94 1.01-1.19 1.9-2.54 2.53-4.06.16-.38.3-.78.41-1.16.11-.36.2-.67.32-.99.22-.62.5-1.19.84-1.64.57-.85 1.57-1.14 1.64-.92 0 .01.04.03.12.15.07.08.14.19.21.32.14.24.29.52.43.82.3.59.59 1.22.93 1.84 1.32 2.5 3.14 4.76 5.27 6.59.97.82 1.99 1.57 3.02 2.27.51.35 1.03.69 1.51 1.04.12.09.24.17.35.26.11.08.25.19.28.23.12.11.24.22.31.36.1.16.11.39 0 .54-.11.16-.29.25-.46.31-.11.04-.48.15-.82.21-.34.07-.69.12-1.05.16-.72.08-1.47.13-2.24.2-.39.04-.78.08-1.19.14-.07.01-.28.05-.44.09l-.49.13c-.32.1-.64.22-.92.38-.44.24-.77.56-1.01.96-.09.21-.19.43-.23.66-.01.24-.05.47 0 .7.1.9.92 1.75 1.78 2.38l.16.12.1.07.2.14.4.26c.27.17.53.32.79.47.53.3 1.05.57 1.57.84 1.03.53 2.06 1.02 2.99 1.55.45.25.94.57 1.21.79.06.03.15.09.17.19 0 .11-.08.18-.2.24-.82.35-1.94.59-3.05.94-.57.19-1.15.37-1.78.74-.15.08-.31.18-.47.31-.16.14-.32.22-.47.41-.14.18-.31.35-.42.56-.11.22-.21.45-.29.68-.2.71-.06 1.5.17 2.03.23.56.53.98.83 1.35.6.75 1.24 1.33 1.87 1.89 1.24 1.09 2.57 2.08 3.46 3.05.04.05.1.1.13.15.04.05 0 0 0 .02 0 0 0 .01.02.01-.34.1-.92.2-1.44.27z" fill="#ffffff"/>
<path class="star-one"
    d="m506.27 336.19c-.03-.25-.02-.46-.12-.64-.16-.37-.5-.75-1.11-1.08-.29-.16-.61-.31-.92-.47l-.44-.22-.21-.11c-.26-.15-.52-.3-.74-.47-.46-.33-.81-.71-1.12-1.18-.63-.94-1.03-2.22-1.48-3.53l-.39-1.13c-.02-.05-.05-.09-.07-.14-.09-1.02-2.01-1.58-2.41-.46l-.38 1.07-.93 2.54-.47 1.26-.24.61-.11.27s0 0-.02.03c-.28.37-1.03.8-1.77 1.12l-1.88.78c-.39.18-.75.39-.9.64-.15.27-.2.44-.35.79.03.55.12.97.49 1.38.35.41.94.75 1.56 1.05l.47.21.26.11.48.2c.3.13.61.26.78.36.02 0 .21.14.34.24.14.1.27.2.31.24.03.04 0-.02.03.04.03.07.1.23.16.37l.39.98c.12.3.22.57.33.9l.46 1.41c.23.64.48 1.29.79 1.7s.63.63 1 .74c.19.05.43.02.68.04.25-.03.41-.17.58-.23.32-.17.62-.44.85-1.01.06-.14.12-.26.17-.41l.14-.48c.1-.32.17-.66.25-1l.17-.68.13-.47c.09-.3.18-.6.3-.88.22-.56.49-1.05.82-1.43.32-.38.7-.64 1.21-.86.35-.16 1.22-.37 1.79-.6.59-.26.84-.57 1.02-.92.02-.19.17-.44.13-.7zm-3.9-.09c-.77.31-1.58.85-2.15 1.53-.58.67-.97 1.42-1.26 2.15-.15.37-.26.73-.37 1.09l-.15.54-.08.33-.18-.57c-.11-.33-.25-.72-.39-1.06l-.38-.95c-.07-.17-.13-.34-.25-.58-.12-.25-.36-.59-.59-.78-.21-.19-.37-.29-.51-.4-.15-.11-.24-.18-.52-.36-.43-.25-.76-.38-1.1-.53l-.7-.29.61-.26c.89-.43 1.83-.82 2.71-1.86.14-.14.25-.38.34-.55l.15-.36.26-.66.48-1.29.07-.2c.29.78.63 1.57 1.14 2.35.45.69 1.07 1.34 1.73 1.82.33.25.67.45 1.01.64l.28.15-.17.07z" fill="#ffffff"/>
<path class="star-two"
    d="m486.49 319.93c-.25-.41-.67-.78-1.05-1.07-.92-.68-1.66-1.21-2.22-1.88-.55-.66-.96-1.48-1.25-2.39-.08-.25-.16-.51-.23-.78 0-.05.02-.09.02-.14.11-1.15-2.4-1.2-2.49-.3-.03.27-.07.53-.12.79-.24 1.27-.72 2.43-1.52 3.26-.39.41-.87.76-1.46 1.11l-.57.34c-.28.17-.6.39-.84.61-.51.45-.74.99-.73 1.62.05.46.2.85.52 1.16.29.32.81.58 1.25.8l.25.13.15.08c.09.05.19.11.27.16.17.11.33.23.48.37.29.27.57.58.78.94.11.18.21.37.3.57.02.03.16.4.23.62.09.25.17.52.24.8.15.53.31 1.11.52 1.42.2.34.4.49.59.57.2.07.34.11.73.2.38-.1.51-.11.71-.18.19-.1.39-.23.6-.6l.16-.26.14-.37c.09-.24.18-.51.26-.79s.17-.53.27-.78l.14-.38.09-.2c.09-.2.2-.38.32-.56.47-.72 1.06-1.2 1.9-1.61l.24-.12c.11-.06.23-.11.34-.17.23-.12.45-.26.63-.42.36-.32.59-.72.65-1.2.05-.47-.04-.93-.3-1.34zm-2.69 1c-1.08.5-2.21 1.39-2.88 2.48l-.55.99-.06-.13c-.13-.29-.28-.57-.44-.84-.33-.56-.76-1.06-1.25-1.51-.25-.22-.51-.42-.79-.6-.14-.09-.27-.17-.41-.25l-.31-.17h-.02l.38-.24c.66-.39 1.38-.89 1.98-1.53.46-.48.81-1.03 1.12-1.59.21.36.45.7.72 1.03.81.97 1.83 1.68 2.61 2.26l.03.02-.13.06z" fill="#ffffff"/>
<path 
    d="m356.26 98.28c-.43-.46-.87-.7-1.22-.89-.36-.19-.69-.35-1.02-.49l-.98-.42-.24-.1-.08-.03-.14-.05c-.94-.35-2.22-.81-3.41-1.09-.36-.12-.71-.24-1.07-.35l-4.36-1.3-5.77-1.93-.41-.07-6.45-1.74c-4.39-1.22-8.76-2.43-13.11-3.64-1.29-.4-2.91-.32-4.23.36-1.33.66-2.38 1.85-2.86 3.26-.05.17-.12.34-.17.63l-.07.42-.14.83-.31 1.66c-.21 1.1-.45 2.2-.7 3.3-.5 2.19-1.09 4.36-1.75 6.51s-1.43 4.26-2.19 6.45c-1.52 4.39-2.7 8.95-3.49 13.59l-.32 1.77-.14.86-.04.18-.05.29c-.03.19-.05.39-.06.58-.1 1.54.48 3.18 1.56 4.32.54.58 1.19 1.04 1.91 1.36.18.08.36.15.55.21.1.03.18.06.29.09.14.04.27.07.42.08l.88.09c1.15.13 2.31.26 3.46.43 1.12.16 2.29.37 3.39.63.65.15 3.58.76 6.66 1.72 1.54.47 3.11 1.04 4.53 1.55s2.67.93 3.47 1.19c1.89.62 3.59 1.16 5.74 1.63 1.64.35 3.29.67 5.06 1.01l1.61.29c.24.05.6.09.74.14.34.07.67.11 1 .13 1.33.07 2.73-.39 3.78-1.25.62-.51 1.14-1.15 1.5-1.88.09-.18.17-.37.24-.56.03-.1.07-.19.1-.29.03-.11.09-.27.09-.4l.12-.98c.16-1.24.35-2.48.56-3.72.32-1.9.68-3.81 1.15-5.66.62-2.56 1.45-5.09 2.2-7.74.75-2.62 1.48-5.24 2.32-7.79.42-1.29.86-2.51 1.35-3.81.48-1.31.97-2.66 1.24-4.21.13-.77.2-1.6.08-2.51s-.49-1.89-1.21-2.69zm-2.21 6.75c-.43 1.35-1 2.75-1.48 4.21-.48 1.44-.9 2.89-1.3 4.35-.79 2.91-1.45 5.8-2.17 8.7-.64 2.65-1.16 5.33-1.67 8.01-.32 1.63-.64 3.28-.97 4.97-.08.41-.15.82-.23 1.24l-.06.31c-.02.08-.04.26-.05.24-.01 0-.09.23-.16.34-.28.54-.71.99-1.21 1.28-.45.25-.92.41-1.41.44-.25.02-.5 0-.74-.03l-.98-.19c-1.4-.26-2.79-.53-4.19-.79-2.79-.55-5.57-1.18-8.34-2.01-2.79-.82-5.54-2.04-8.44-3-2.87-.97-5.8-1.79-8.78-2.39-1.51-.3-3.02-.52-4.52-.68-.36-.04-.85-.08-.83-.09-.23-.06-.46-.15-.67-.27-.42-.23-.8-.57-1.07-.99-.28-.41-.44-.9-.49-1.42-.02-.26-.02-.54.02-.78.06-.34.05-.43.08-.63l.06-.54c.16-1.45.35-2.9.59-4.36.48-2.95 1.24-5.85 2.21-8.65s2.17-5.57 3.17-8.47c1-2.89 1.79-5.82 2.38-8.79.15-.74.28-1.49.41-2.23.1-.68.21-1.35.31-2.03.26-.98 1.07-1.82 2.08-2.13.28-.08.58-.13.89-.14.15 0 .31 0 .46.02l.21.03.3.07c.82.21 1.64.41 2.46.61 1.63.43 3.25.86 4.87 1.28 3.24.88 6.46 1.82 9.76 2.84 1.01.31 2.03.61 3.04.92l-.5-.09c2.31.85 4.62 1.73 6.98 2.38 1.15.31 2.31.59 3.46.84 1.28.56 2.94.97 4.1 1.48.71.31 1.47.64 2.08.97.14.08.28.17.36.23.08.07.11.09.19.2.13.2.26.4.32.67.31 1.05-.05 2.62-.51 4.06z" 
    fill="#ffffff"/>
<path 
    d="m361.64 141.11.1-.41.4-1.66c.27-1.13.55-2.26.82-3.38 1.1-4.57 1.72-9.04 2.6-13.63.86-4.65 2.5-9.04 4.06-13.45.19-.56.39-1.11.58-1.66.19-.53.36-1.17.55-1.52.4-.85.97-1.45 1.62-1.7.59-.26 1.48-.2 2.54.04 1.04.23 2.15.58 3.28.9 2.54.74 5 1.52 7.5 2.32s5.07 1.51 7.75 2.01c1.19.23 2.38.36 3.49.5 1.12.14 2.22.3 3.33.47 2.23.34 4.46.66 6.7.86 1.15.1 2.18-.17 1.97-1.07-.1-.42-.73-.66-1.16-.86-.59-.19-1.19-.38-1.84-.59-.45-.14-.9-.27-1.35-.37-1.19-.26-2.38-.5-3.58-.7-1.68-.29-3.44-.48-5.12-.6-1.66-.12-3.24-.34-4.85-.68-3.43-.72-6.8-1.96-10.18-3.12-1.69-.58-3.33-1.23-5.18-1.75-.93-.23-1.95-.48-3.17-.33-1.22.14-2.38.81-3.16 1.68-.78.86-1.29 1.92-1.55 2.84l-.79 2.58c-.52 1.73-1.04 3.45-1.56 5.18-1.06 3.46-1.94 6.96-2.78 10.51-.93 3.6-1.77 7.22-2.42 10.88-.16.89-.34 1.82-.55 2.7-.06.26-.2.98-.39 1.95-.09.5-.2 1.07-.31 1.68-.08.74-.09 1.46.05 2.26.24 1.59 1.32 3.1 2.45 3.9 1.13.82 2.21 1.22 2.87 1.45 1.59.54 3.04.8 4.8.89 1.35.05 2.58.06 3.95.23 1.64.2 3.27.48 4.89.82 1.92.4 3.82.88 5.71 1.41 1.46.41 2.93.81 4.35 1.29 1.97.65 3.95 1.35 5.94 2.07l2.98 1.1 1.61.6c.13.04.25.05.38.08l.24.04c.16.02.33.04.49.05.33.02.68.03 1.03 0 .71-.05 1.46-.23 2.16-.61.69-.37 1.33-.96 1.75-1.61.83-1.33.98-2.52 1.21-3.6.2-1.08.36-2.11.57-3.11.1-.5.21-1 .33-1.49l.19-.73.05-.18v-.06l.04-.1c.27-1.23 1.09-3.05.95-4.13-.06-.45-.27-.82-.57-1-.2-.12-.43-.14-.7-.04-1.3.52-1.91 2.95-2.36 4.45-.4 1.26-.7 2.55-.95 3.83-.25 1.27-.43 2.56-.75 3.61-.3.99-.68 1.49-1.4 1.79-.35.14-.78.21-1.25.2-.21 0-.52-.03-.67-.05-.02 0-.04 0-.05 0l-.2-.07-.42-.14c-2.22-.76-4.47-1.44-6.73-2.08-2.05-.55-4.11-1.09-6.16-1.69-2.55-.74-5-1.65-7.57-2.37-2.25-.63-4.56-.99-6.89-1.1-1.18-.06-2.24-.07-3.31-.17-1.06-.1-2.11-.27-3.08-.58-.98-.32-1.89-.79-2.49-1.44-.59-.65-.91-1.44-.92-2.36 0-.23 0-.46.04-.69l.05-.31z" 
    fill="#ffffff"/>
<path 
    d="m458.43 49.13c-1.08-4.33-3.82-8.2-7.45-10.72-1.82-1.26-3.81-2.23-5.92-2.87l-6.11-1.55c-4.03-1.01-8.06-2.01-12.1-3.02-7.29-1.81-14.61-3.63-21.9-5.57-9.09-2.44-17.92-4.92-26.86-7.43-15.7-4.44-31.2-8.15999-47.05-12.11999-2.02-.51-4.03-1.02-6.04-1.54-1.97-.51-4.1-1.11-6.27-1.33-2.16-.25-4.4-.25-6.62.25-2.22.47-4.38 1.56-6.07 3.21-1.72 1.69-2.65 3.88999-3.39 5.81999l-2.24 5.81c-1.49 3.88-2.98 7.75-4.37 11.69-.7 2-1.37 4.01-1.94 6.07-.55 1.99-1.12 3.97-1.7 5.95-1.16 3.95-2.35 7.9-3.4 11.9-2.03 7.95-4.05 15.9-6.11 23.97-2.08 8.16-4.31 16.24-6.57 24.3-2.18 8.1-4.49 16.12-6.77 24.2-1.14 4.05-2.28 8.05-3.35 12.11-1.06 4.05-2.01 8.11-2.92 12.18-1.8 8.13-3.45 16.28-5.1 24.53-3.62 18.43-7.64 36.07-11.91 54.3-.47 2-.94 4.01-1.41 6.02-.49 2-1.05 3.99-1.58 5.98-1.1 3.98-2.19 7.95-3.28 11.91-2.19 7.84-4.36 15.62-6.56 23.48-1.09 3.96-1.61 7.2-.31 5.89.61-.62 1.41-2.83 1.99-4.38.71-2.09 1.44-4.21 2.19-6.42.52-1.55 1.03-3.11 1.51-4.68 1.25-4.07 2.46-8.15 3.63-12.25 1.64-5.78 3.19-11.58 4.66-17.41l3.88-17.58c2.76-12.61 5.63-25.12 8.29-37.6 2.72-12.47 5.3-24.94 8.19-37.29 1.44-6.17 3.16-12.26 4.81-18.43 1.65-6.16 3.3-12.32 4.96-18.49 1.59-6.17 3.32-12.34 5.01-18.54 1.68-6.2 3.37-12.42 5.06-18.66l5.26-19.03 2.82-9.47c.47-1.59.92-3.18 1.36-4.78.43-1.61.86-3.12 1.35-4.69.96-3.03 2.1-6.19 3.23-9.18.33-.89 1.23-3.33 2.44-6.61.61-1.62 1.28-3.55 2.03-5.41.75-1.85999 1.84-3.46999 3.56-4.56999.85-.54 1.79-.96 2.79-1.26 1-.28 2.06-.43 3.12-.49 2.12-.11 4.26.18 6.21.62 4.03 1.04 7.51 1.93 9.73 2.5 5.28 1.39 10.01 2.65999 15.89 4.11999 4.47 1.11 8.97 2.23 13.77 3.49 5.81 1.52 11.61 3.04 17.41 4.55 6.86 1.77 13.7 3.54 20.56 5.31 5.27 1.4 10.58 2.82 15.81 4.21 7.22 1.94 14.51 3.9 21.85 5.87 1.83.49 3.67.98 5.51 1.47.46.12.92.25 1.38.36.41.1.83.23 1.25.37.83.28 1.64.63 2.43 1.02 1.56.8 3.02 1.8 4.27 3.01s2.29 2.62 3.09 4.16c1.59 3.09 2.13 6.69 1.6 10.16-.12.89-.33 1.64-.59 2.62-.25.93-.48 1.87-.7 2.8-.45 1.87-.86 3.74-1.27 5.6-.81 3.72-1.6 7.38-2.72 10.9-.56 1.74-1.18 3.62-1.71 5.42l-1 3.4-.06.22-.1.37c-1.24 4.49-3.32 11.66-3.63 15.15-.13 1.43-.03 2.43.27 2.64.2.14.48-.06.85-.69 1.79-3.13 3.68-11.37 5.23-16.55.64-2.17 1.3-4.34 2-6.48.71-2.11 1.44-4.38 2.01-6.6 1.15-4.47 1.98-8.94 3.06-13.32l.77-3.01c.29-1.09.47-2.19.57-3.29.18-2.21.03-4.46-.53-6.61z" fill="#ffffff"/>
<path 
  d="m432.98 153.13c-.49.39-.9 1.82-1.24 2.82-.38 1.35-.76 2.72-1.16 4.15-.29 1-.56 2-.82 3.01l-2 7.87c-1.87 7.4-3.75 14.8-5.63 22.2-8.17 31.83-16.62 62.59-24.61 94.56-2.12 8.12-4.21 16.25-6.17 24.41-.48 1.99-1 4.07-1.53 6.04-.15.59-.56 2.19-1.11 4.35-.27 1.08-.58 2.3-.9 3.61-.17.64-.32 1.35-.53 1.96-.2.63-.37 1.29-.66 1.91-1.02 2.53-2.69 4.89-4.52 6.59-1.82 1.72-3.75 2.76-4.99 3.35-.76.29-1.48.64-2.25.83-.38.11-.75.23-1.14.33-.39.07-.78.15-1.17.22-.39.09-.79.14-1.19.17-.4.04-.81.08-1.23.12-.83-.02-1.7.07-2.6-.05l-1.03-.09c-.34-.05-.68-.12-1.02-.18l-1.03-.2-1.09-.27c-1.46-.37-2.94-.75-4.47-1.13-3.69-.98-7.38-1.96-11.07-2.93-4.36-1.16-8.71-2.33-13.06-3.49-3.35-.89-6.73-1.79-10.06-2.68-9.18-2.51-18.56-5.01-27.97-7.47-4.71-1.22-9.42-2.44-14.11-3.65-2.35-.6-4.69-1.2-7.02-1.79-1.17-.3-2.33-.59-3.5-.89l-1.74-.44-.44-.11-.14-.03-.24-.06c-2.88-.67-7.43-1.98-9.71-1.99-.93 0-1.6.18-1.77.49-.11.21 0 .47.38.77 1.91 1.49 7.2 2.54 10.54 3.43 5.6 1.46 11.22 2.92 16.82 4.38 10.29 2.65 20.56 5.2 30.87 7.65 4.66 1.11 9.33 2.22 13.97 3.46 5.79 1.54 11.37 3.3 17.03 5.01 4.98 1.5 9.94 2.8 14.93 4.04 1.2.3 2.61.63 3.97.77 1.37.16 2.76.17 4.13.06 2.75-.23 5.45-1 7.92-2.25 5.04-2.52 9.04-7 10.9-12.33.48-1.37.8-2.62 1.15-3.89l1.05-3.82 2.08-7.65c2.78-10.34 4.93-20.38 7.29-30.72 2.38-10.46 5.31-20.67 8.23-30.95 2.93-10.3 5.54-20.43 8.01-30.86 2.76-11.63 5.66-22.8 8.89-34.3 2.84-10.1 5.59-20.38 7.34-30.46.45-2.59.41-4.72-.63-3.9z" fill="#ffffff"/>
<path 
  d="m262.28 304.89c.89.34 1.79.66 2.69.96 2.35.78 4.71 1.53 7.08 2.25 6.69 2.03 13.45 3.82 20.26 5.38 7.33 1.7 14.68 3.01 21.93 4.44 7.26 1.42 14.44 3.02 21.57 4.82 7.14 1.8 14.23 3.78 21.3 5.93 1.77.55 3.54 1.1 5.32 1.64l1.34.42c.24.07.42.14.7.22.31.08.55.12.82.17 1.06.18 2.12.22 3.18.11 4.29-.35 8.24-3.33 9.75-7.38 2.5-7.33 5.15-14.49 7.23-21.9.52-1.8 1.07-3.68 1.62-5.46.33-1.06 1.66-5.81 3-10.96 1.32-5.15 2.73-10.68 3.4-13.27.82-3.06 1.57-5.81 2.39-9.22.62-2.6 1.26-5.22 1.99-8.01.9-3.37 1.79-6.73 2.69-10.1.97-4 1.94-7.99 2.91-11.98.74-3.08 1.49-6.17 2.22-9.23 2.09-8.42 4.17-17.03 6.21-25.66 1.01-4.32 2.01-8.64 3.01-12.94.49-2.15.98-4.3 1.47-6.44.24-1.07.49-2.14.73-3.21l.45-2 .03-.13.04-.22c.54-2.64 1.65-6.82 1.55-8.9-.04-.85-.25-1.46-.57-1.61-.21-.1-.47 0-.75.36-1.4 1.76-2.21 6.61-2.95 9.67-1.2 5.14-2.41 10.29-3.61 15.42-2.19 9.43-4.26 18.85-6.25 28.3-.9 4.27-1.8 8.55-2.82 12.81-1.28 5.31-2.77 10.43-4.25 15.61-2.77 9.06-4.78 18.09-7.02 27.3-2.28 9.38-4.97 18.6-7.89 27.74-1.47 4.63-2.85 9.19-4.32 13.7-.71 2.26-1.42 4.53-2.13 6.81l-.27.85-.13.43s-.09.3-.09.31l-.05.19c-.13.52-.31 1.02-.53 1.51-.44.98-1.07 1.88-1.84 2.65-1.56 1.58-3.73 2.52-5.97 2.61-1.13.03-2.22-.07-3.32-.47l-3.46-1.12c-4.63-1.5-9.26-3-13.94-4.41-9.37-2.83-18.7-5.04-28.36-6.74-10.77-1.89-21.12-3.6-31.54-6.57-9.17-2.56-18.34-5.51-27.33-7.87-2.31-.61-4.27-.74-3.64.35.3.51 1.56 1.03 2.44 1.42 1.2.46 2.41.92 3.69 1.4z" fill="#ffffff"/>
<path 
  d="m446.2 60.74c.03-.18.07-.32.11-.51.05-.2.08-.4.12-.6.07-.4.11-.79.14-1.19.05-.79.02-1.59-.08-2.38-.42-3.18-2.26-6.14-4.92-7.91-.71-.48-1.48-.88-2.28-1.19-.4-.16-.81-.28-1.22-.39l-1.12-.29-4.46-1.16c-2.97-.77-5.93-1.55-8.89-2.32l-5.55-1.45-.34-.09c-.16-.04-.35-.04-.44-.05-.23-.02-.46-.02-.7-.02-.94.03-1.93.27-2.78.8-.87.52-1.53 1.31-1.98 2.07s-.75 1.55-1.04 2.09c-.15.28-.24.39-.41.52-.15.14-.37.24-.61.34-.51.18-1.16.26-1.83.27-2.75-.01-5.71-.82-8.57-1.63-2.88-.84-5.74-1.82-8.63-2.79-5.78-1.9-11.52-3.86-17.41-5.57-2.95-.85-5.96-1.59-9.02-2.11-3.05-.52-6.08-.87-9.07-1.29-1.49-.21-2.97-.44-4.4-.74-1.42-.3-2.84-.67-3.92-1.25-.54-.28-.91-.63-1.02-.88-.12-.2-.13-.55.02-1.21.14-.62.42-1.37.6-2.27.19-.87.22-2.07-.26-3.15-.47-1.06-1.33-1.85-2.22-2.33-.22-.12-.45-.23-.67-.32-.08-.03-.28-.12-.46-.16l-.28-.07-1.11-.29-4.44-1.15c-2.96-.76-5.92-1.53-8.89-2.3l-4.46-1.15-1.12-.29c-.43-.08-.86-.19-1.3-.25-.87-.11-1.76-.15-2.64-.05-1.76.16-3.48.72-4.98 1.63-1.5.92-2.8 2.18-3.76 3.66-.26.37-.45.78-.68 1.17-.19.41-.37.82-.53 1.24-.13.42-.29.89-.38 1.26l-.29 1.14-1.17 4.57-2.33 9.14c-1.52 6.1-3.04 12.2-4.57 18.31-.76 2.95-1.58 6.04-2.51 8.94-.27.87-1.01 3.22-2.01 6.4-1.02 3.18-2.29 7.21-3.53 11.41-2.48 8.4-4.85 17.49-6 21.74-1.34 5.04-2.56 9.56-3.91 15.18-1.04 4.28-2.09 8.58-3.21 13.18-1.38 5.56-2.75 11.12-4.13 16.68-1.62 6.57-3.09 13.19-4.5 19.8-1.1 5.08-2.21 10.2-3.37 15.23-1.64 6.94-3.29 13.95-4.95 21-1.74 7.03-3.48 14.1-5.23 21.17-1.72 7.08-3.45 14.16-5.17 21.21-.86 3.53-1.84 7.01-2.75 10.5-.46 1.74-.92 3.49-1.38 5.22l-.69 2.61-.17.65-.05.21-.09.36c-1.07 4.29-3.04 11.12-3.35 14.45-.13 1.36-.03 2.33.27 2.54.2.14.48-.04.85-.64 1.79-2.95 3.59-10.85 4.96-15.85 1.13-4.19 2.27-8.39 3.41-12.59.55-2.1 1.15-4.19 1.66-6.31l1.54-6.33c1.86-7.75 3.71-15.48 5.56-23.21l2.72-11.6c.89-3.87 1.72-7.75 2.56-11.64 1.51-7.03 3.03-14.06 4.54-21.1 1.91-8.79 3.97-17.28 6.29-25.83 4.05-15.03 7.37-29.88 11.21-44.99 1.97-7.68 4.1-15.3 6.47-22.83 2.35-7.51 5.13-14.96 7.23-22.68 2.11-7.77 3.94-15.4 5.77-23.03.9-3.81 1.8-7.62 2.7-11.45.12-.46.22-1 .34-1.39l.18-.62.24-.61c.36-.79.79-1.57 1.37-2.23 1.12-1.35 2.67-2.38 4.4-2.89.87-.24 1.78-.42 2.69-.38.94.02 1.76.15 2.76.42 1.95.49 3.89.98 5.83 1.47 3.87 1.02 7.74 2.03 11.6 3.05l1.45.39.72.19s.04.01.08.03l.14.06.28.13c.72.38 1.19.97 1.32 1.62.15.66-.08 1.51-.38 2.46-.14.48-.31.98-.41 1.58-.1.58-.12 1.3.13 2 .25.69.71 1.24 1.19 1.64s.99.69 1.5.94c1.01.49 2.03.79 3.04 1.06 2.02.52 4.02.84 6.01 1.15 3.99.61 7.92 1.08 11.71 1.94 3.81.86 7.57 2.01 11.34 3.19 3.77 1.21 7.54 2.41 11.33 3.63 3.78 1.22 7.59 2.49 11.59 3.45 2.23.51 4.49.99 6.95.94 1.21-.07 2.62-.2 3.89-1.25.3-.25.58-.6.77-.91.18-.31.32-.6.44-.86.24-.53.44-.99.67-1.4.46-.82 1.01-1.33 1.78-1.6.38-.13.8-.19 1.23-.18l.31.02h.05l.99.26c2.13.55 4.26 1.1 6.39 1.65 4.25 1.12 8.51 2.24 12.78 3.37 1.89.5 3.59 1.63 4.77 3.17 1.19 1.55 1.84 3.45 1.83 5.41 0 .43-.03.86-.09 1.28-.03.21-.06.42-.11.63l-.16.68-.65 2.89c-.45 1.9-.92 3.8-1.43 5.69-1.01 3.78-2.14 7.52-3.36 11.22-.61 1.84-1.27 3.71-1.84 5.62-.58 1.9-1.09 3.8-1.56 5.7-.94 3.81-1.72 7.62-2.29 11.43-.6 3.92-.44 7.07.58 5.62.48-.67.9-2.85 1.28-4.36.42-2.05.91-4.11 1.47-6.24.4-1.5.79-3 1.19-4.49 1.02-3.91 2.2-7.7 3.55-11.54 1.86-5.46 3.43-11.01 4.71-16.64.32-1.4.63-2.84.9-4.21z" fill="#ffffff"/>
<path 
  d="m239.1 320.16c-.87-1.56-2.45-2.58-4.18-2.81-.96-.13-1.96-.14-2.9.04-.49.09-.88.19-1.33.31s-.89.27-1.34.43c-1.36.5-2.6 1.51-3 2.89-.38.48-.73.99-1 1.57-.74 1.53-.77 3.53.06 5.01.36.68.83 1.25 1.27 1.82.54.71 1.14 1.54 1.96 2.13.73.53 1.63.73 2.47.72.85 0 1.66-.22 2.42-.47 1.54-.49 3.18-1.05 4.47-2.11 1.32-1.08 1.98-2.83 2.01-4.54.05-1.7-.07-3.4-.93-4.99zm-1.59 4.98c-.29.78-.8 1.54-1.38 2.3-.15.18-.32.36-.52.49-.11.08-.58.49-1.13.83-.55.33-1.24.58-1.57.63-.39.06-.74.08-1.17.16-.32.06-.66.1-1 .04-.41-.07-.81-.2-1.16-.39-.42-.24-.77-.49-1.07-.84-.24-.27-.47-.56-.62-.88-.41-.89-.49-1.81-.29-2.69.1-.45.28-.9.52-1.34.12-.22.25-.44.4-.65l.24-.33.11-.15.03-.04.01-.04c.14-.26.5-.46.48-.94.55-.52 1.16-.95 1.85-1.23.91-.37 1.75-.51 2.57-.32.84.17 1.66.6 2.3 1.15 1.31 1.13 1.81 2.68 1.39 4.23z" fill="#ffffff"/>
<path 
  d="m253.16 310.79c-.38-1.71-.83-3.5-1.47-5.14-.08-.25-.26-.7-.54-1.3-.14-.3-.28-.64-.47-1.01-.2-.36-.41-.76-.64-1.18-.95-1.67-2.37-3.65-4.17-5.44-1.82-1.77-3.99-3.22-5.99-4.28-2.01-1.08-3.87-1.73-5.07-2.11-2.84-.85-5.52-1.34-8.82-1.21-1.25.07-2.51.18-3.77.41-.63.11-1.26.24-1.9.39-.32.08-.63.16-.95.24-.24.06-.49.1-.74.12-.61.04-1.22-.07-1.78-.3-.28-.12-.54-.27-.78-.45-.12-.09-.24-.19-.34-.29-.2-.19-.35-.31-.49-.43-1.18-1.01-2.36-2.03-3.52-3.06-2.74-2.44-5.4-4.96-8-7.55-2-1.99-4-4.02-5.88-6.09-2.61-2.86-5.16-5.82-7.65-8.85l-.23-.28c-.03-.05-.26-.32-.41-.44-.29-.26-.61-.47-.96-.64s-.72-.29-1.1-.36c-.19-.03-.39-.06-.58-.06h-.48l-2.97.07c-1.99.05-3.97.11-5.96.16l-1.49.04h-.37c-.12.01-.24.02-.46.03-.39.03-.78.12-1.15.26-1.49.55-2.6 1.96-2.77 3.54-.02.17-.03.44-.03.54v2.61l-.03 2.98v2.97l-.02 1.48v.74c0 .37.04.77.14 1.14.19.74.62 1.45 1.15 1.96l1.05 1.04 1.05 1.03.34.34.15.14c.41.4.87.85 1.36 1.32.72.29 1.49.6 2.25.91.44.11.88.23 1.32.34.41.1.8.19 1.18.26.69.13 1.3.21 1.81.21-.02.29-.03.58-.04.84 0 .57.01 1.15.02 1.74v.96c.03.53.22 1.05.54 1.49.29.36.39.43.54.6l.44.46.9.91.89.89c.53.56 1.39.85 2.07.82h1.29l2.47.02h.05c.08 0 .15.05.2.11.02.03.04.07.04.11 0 .07 0 0 .01.26l.09 2.34.02.59c.01.21 0 .34.03.66.06.57.24 1.12.53 1.61.07.12.15.24.24.36.08.11.22.28.33.39.11.14.26.21.39.3l.28.17c.3.19.59.39.88.6 2.28 1.7 3.9 4.23 4.46 7.02.31 1.47.25 2.98-.14 4.45-.19.75-.46 1.5-.73 2.34-.26.85-.49 1.7-.65 2.56-.66 3.45-.71 6.95-.04 10.43.72 3.55 2.65 6.73 5.07 9.25 1.22 1.29 2.55 2.35 3.99 3.4 1.47.97 3.01 1.85 4.66 2.47 1.63.66 3.34 1.12 5.06 1.41 1.72.31 3.47.45 5.2.44 3.48-.02 6.93-.52 10.28-1.62 3.33-1.09 6.46-2.78 9.25-4.91 1.4-1.08 2.68-2.26 3.9-3.48 1.23-1.24 2.39-2.6 3.4-4.07 4.28-5.94 5.66-13.7 4.24-20.73zm-8.7 22.34c-1.42 1.59-2.99 3.1-4.69 4.36-1.71 1.27-3.55 2.35-5.5 3.17-3.88 1.66-8.16 2.35-12.36 2.23s-8.29-1.1-11.8-3.11l-1.29-.79-1.22-.9c-.83-.63-1.6-1.3-2.33-2.02-1.44-1.43-2.69-3.06-3.6-4.87-.5-1.01-.87-2.07-1.13-3.16-.25-1.1-.39-2.25-.46-3.4-.13-2.3.05-4.63.58-6.84.25-1.11.65-2.15 1.04-3.39.37-1.22.61-2.58.59-3.92-.05-2.71-.93-5.29-2.43-7.55-.7-1.04-1.54-1.99-2.49-2.82-.48-.41-.98-.8-1.5-1.15-.36-.23-.3-.2-.31-.21-.05-.07-.13-.21-.16-.32-.04-.12-.06-.24-.06-.37l-.02-.84-.05-1.71-.03-.85c0-.08 0-.45-.04-.7-.04-.27-.12-.54-.23-.78-.44-1-1.49-1.67-2.59-1.66-.9.01-1.8.02-2.7.03l-1.29.03c-.15.02-.13.02-.21-.01-.83-.76-1.7-1.54-2.56-2.29-.14-.13-.13-.1-.17-.14-.03-.03-.06-.06-.08-.1s-.04-.08-.06-.12c-.01-.06-.03-.26-.05-.38-.07-.56-.14-1.12-.21-1.7-.09-.68-.21-1.3-.36-1.81.07-.18 0-.39-.2-.62l-.06-.18h-.12c-.45-.4-1.12-.76-1.92-1.09-.43-.18-.89-.34-1.37-.51l-.73-.23-.68-.2c-.54-.22-1.08-.44-1.6-.65.02.03-.27-.26-.46-.45-.2-.2-.4-.4-.59-.59l-2.5-2.53c-.22-.23-.37-.53-.41-.84-.01-.09-.01-.13-.01-.27v-.44l.01-.89c.02-2.37.03-4.75.05-7.11v-1.63l.02-.78c0-.15.03-.29.08-.43.19-.56.73-.98 1.33-1l6.49-.27 3.25-.15 1.56-.07c.32 0 .64.1.92.28.18.08.57.61.93 1l1.08 1.22 2.2 2.42c2.68 2.89 5.44 5.7 8.2 8.52 3.44 3.52 6.74 7.03 10.26 10.4.77.74 1.56 1.47 2.35 2.18l1.11.98c.49.49 1.06.89 1.67 1.2 1.24.61 2.67.81 4.02.56.17-.03.33-.07.5-.11l.37-.09.72-.18c.48-.1.97-.21 1.46-.3 3.9-.68 7.99-.52 11.87.67 1.98.6 3.86 1.47 5.62 2.57 1.75 1.1 3.37 2.39 4.67 3.93 2.71 3.04 4.43 6.89 5.28 10.87 1.73 8.05.08 16.63-5.59 22.92z" 
  fill="#ffffff"/>
<path 
  d="m164.33 310.12c-1.69-2.04-4.17-3.31-6.73-4-6.42-1.71-13.72-1.68-20.33-2.37-3.42-.36-6.43-2.44-7.98-5.52l-.06-.13-14.35-38.01c-4.74-9.47-18.19-9.47-22.93 0l-13.13 34.73c-1.27 3.35-4.82 6.96-7.45 9.38-3.75 3.46-7.44 6.73-11.15 10.09-5.78 5.23-12.51 10.28-17.18 16.54-3.14 4.21-4.56 9.56-1.13 14.07 3.28 4.32 9.57 4.63 14.51 5.58 4.21.81 8.51 1.42 12.68 2.44 2.94.72 2.54 3.5 1.69 5.52l-.75 1.89-1.39 3.47-13.07 32.7c-1.35 3.17.94 6.71 4.33 6.71h29.42c2.19 0 4.09-1.53 4.59-3.7l6.49-31.95c.73-3.16 5.21-3.16 5.94 0l6.49 31.95c.5 2.17 2.4 3.7 4.59 3.7h29.42c3.39 0 5.68-3.54 4.33-6.71l-15.19-38.02c-.9-2.11-1.39-3.91 1.66-6.77 3.99-4.14 7.97-8.29 11.96-12.43 4.48-4.66 9.95-9.39 13.62-14.03 3.34-4.21 4.89-10.52 1.12-15.11 0 0-.01-.02-.02-.03z" fill="#fbb13d"/>
<path class="smile"
  d="m103.81 331.09c-5.25 0-9.54-1.51-11.65-2.42-3.45-1.49-6.55-3.63-9.22-6.37-.58-.59-.57-1.54.03-2.12.59-.58 1.54-.57 2.12.03 2.4 2.46 5.17 4.38 8.26 5.71 2.95 1.27 10.71 3.88 18.96.55 3.31-1.33 6.25-3.42 8.74-6.21.55-.62 1.5-.67 2.12-.12s.67 1.5.12 2.12c-2.8 3.13-6.12 5.48-9.86 6.99-3.37 1.36-6.65 1.84-9.63 1.84z" 
  fill=" #181a1c"/>
<path class="eyes"
  d="m94.58 311.87c-1.56 0-2.82-1.27-2.82-2.83s1.27-2.82 2.82-2.82 2.82 1.27 2.82 2.82-1.27 2.83-2.82 2.83zm0-3c-.1 0-.18.08-.18.17 0 .19.35.19.35 0 0-.1-.08-.17-.18-.17z" 
  fill=" #181a1c"/>
<path class="eyes"
  d="m111.57 311.87c-1.56 0-2.82-1.27-2.82-2.83s1.27-2.82 2.82-2.82 2.82 1.27 2.82 2.82-1.27 2.83-2.82 2.83zm0-3c-.1 0-.18.08-.18.17 0 .19.35.19.35 0 0-.1-.08-.17-.18-.17z" 
  fill=" #181a1c"/>
<path
  d="m69.44 288.59-5.05 2.83c-.4.24-.73.59-.94 1.01l-2.78 5.88c-.92 1.82-3.52 1.82-4.44 0l-2.78-5.88c-.21-.42-.53-.77-.94-1.01l-5.05-2.84c-1.6-.97-1.6-3.29 0-4.25l5.04-2.83c.4-.24.73-.59.94-1.01l2.79-5.89c.92-1.82 3.52-1.82 4.44 0l2.78 5.88c.21.42.54.77.94 1.01l5.05 2.84c1.6.97 1.6 3.29 0 4.25z" fill="#facd6f"/>
<g fill="#ffffff">
<path
  d="m148.45 390.39c-.4 0-.77-.24-.93-.63l-10.95-27.29c-.21-.51.04-1.09.56-1.3.51-.2 1.1.04 1.3.56l10.95 27.29c.21.51-.04 1.09-.56 1.3-.12.05-.25.07-.37.07z"/>
<path 
  d="m94.48 396.85c-.07 0-.13 0-.2-.02-.54-.11-.89-.64-.78-1.18l4.05-19.86c.11-.54.64-.89 1.18-.78s.89.64.78 1.18l-4.05 19.86c-.1.47-.51.8-.98.8z" />
<path 
  d="m137.41 304.61s-.07 0-.11 0c-7.55-.79-10.54-8.86-12.73-14.75l-.49-1.32-8.98-23.76c-.2-.52.07-1.09.58-1.29.52-.2 1.09.06 1.29.58l9.48 25.09c2.11 5.7 4.74 12.79 11.06 13.45.55.06.95.55.89 1.1-.05.51-.49.9-.99.9z"/>
<path 
  d="m315.79 253.29-.04.11c-.14.35-.42.66-.69.8-.14.08-.33.14-.56.18-.11.02-.24.04-.37.05-.08 0-.16 0-.24 0-.3-.03-.64-.21-.97-.53-.15-.14-.33-.37-.43-.54-.11-.18-.2-.37-.26-.58l-.04-.13c-.03-.13-2.51.25-2.44.58l.07.27c.12.42.3.82.54 1.2.25.39.47.67.79.98.59.6 1.43 1.12 2.43 1.25.25.03.49.03.74.02.2-.02.4-.04.6-.08.41-.07.86-.2 1.29-.43.87-.47 1.49-1.22 1.84-2.07l.1-.27c.11-.37-2.36-.88-2.38-.79z"/><path d="m325.99 250.9-.04-.44c-.03-.28-.07-.54-.14-.79-.13-.51-.41-.94-.81-1.23-.37-.27-.83-.39-1.29-.36-.23.02-.47.07-.7.15-.23.07-.48.17-.56.19-.45.17-.82.28-1.25.36-.83.17-1.71.19-2.56.08-.43-.06-.84-.15-1.25-.27-.19-.06-.41-.14-.57-.21l.65-1.36.07-.2.27-.75c.09-.23.19-.62.26-.93.14-.66.21-1.34.17-2.04-.04-.69-.16-1.38-.41-2.06-.26-.71-.65-1.31-1.12-1.86s-1.07-1.01-1.69-1.34c-.31-.17-.62-.3-.86-.41-.44-.18-.73-.25-1.07-.33-1.3-.27-2.71-.29-4.09.2-1.35.49-2.45 1.44-3.23 2.57h-.08c-1.18.2-2.38.53-3.47.94-.54.2-1.09.4-1.68.68l-.29.15-.36.21c-.23.15-.44.32-.62.51-.37.37-.55.83-.59 1.33.01.59.24 1.13.7 1.57.22.23.48.42.75.6.27.17.37.22.56.32.69.35 1.34.6 2.1.8.75.19 1.48.24 1.92.36.44.11.85.33 1.24.66l.21.19s-.05.04-.1.07c-.21.15-.5.35-.77.58-1.11.94-1.82 2.22-2.17 3.52-.36 1.3-.39 2.72-.04 4.05.35 1.32.98 2.5 1.84 3.53.12.14.21.24.38.42l.37.33c.26.21.53.42.81.61.57.38 1.21.68 1.85.88.64.21 1.27.32 1.82.43.57.11 1.24.22 1.86.25 1.26.08 2.56-.04 3.76-.29 2.46-.52 4.78-1.61 6.69-3.33.35-.32.67-.65.98-1 .06-.06.13-.12.19-.19s.11-.14.16-.21c.04-.05.09-.1.13-.15.04-.06.07-.11.11-.16.29-.39.56-.78.81-1.21.61-1.04 1.05-2.33 1.13-3.59.05-.61.02-1.27-.02-1.8zm-22.56-6.36c-.51-.13-1.08-.35-1.56-.59l-.29-.16.08-.04c.42-.2.92-.39 1.44-.58.55-.21 1.1-.37 1.65-.52-.06.43-.09.86-.07 1.29.02.29.05.56.1.84-.53-.1-.96-.14-1.35-.24zm20.08 7.98c-.06.9-.34 1.71-.81 2.54-.22.39-.48.76-.77 1.12-.35.42-.72.83-1.12 1.19-1.5 1.36-3.48 2.31-5.51 2.73-1.05.23-2.06.31-3.09.25-.52-.03-.99-.1-1.55-.21-.58-.11-1.08-.21-1.53-.35-.45-.15-.86-.34-1.25-.59-.19-.12-.38-.27-.57-.42l-.27-.24s-.13-.14-.2-.22c-.62-.73-1.09-1.62-1.33-2.53-.47-1.75.1-3.94 1.41-5.03.17-.14.35-.27.61-.45.14-.1.29-.21.49-.4.2-.2.38-.43.5-.69.24-.52.32-1.12.17-1.67-.16-.59-.42-.92-.58-1.17-.35-.5-.56-.83-.7-1.23-.14-.38-.24-.87-.25-1.31-.04-.9.18-1.81.65-2.52.51-.75 1.23-1.36 2.03-1.64.78-.29 1.77-.31 2.7-.1.22.04.49.13.58.16.28.13.5.22.69.33.39.21.72.46.99.79.28.32.52.7.65 1.07.15.4.23.86.26 1.31.02.46-.02.92-.12 1.39-.06.25-.1.42-.21.73l-.31.87.07-.19-.64 1.33c-.22.45-.46.91-.44 1.34.01.44.2.89.51 1.22.31.34.75.58 1.21.77.3.13.55.21.83.3.55.17 1.1.29 1.67.37 1.12.15 2.26.12 3.38-.1.55-.11 1.13-.28 1.62-.47l.15-.05.03.36c.04.54.06.97.02 1.43z"/>
<path 
  d="m311.53 242.69c0 .552-.448 1-1 1s-1-.448-1-1 .448-1 1-1 1 .448 1 1z"/>
<path class="cloud-two"
  d="m205.15 78.99c-.17-1.6-.76-2.98-1.47-4.23-1.92-3.21-4.62-5.81-7.89-7.6-2.28-1.28-4.96-1.96-7.58-2-2.63-.07-5.13.53-7.43.81-2.3.3-4.34.02-5.8-1.48-.71-.69-1.09-1.51-1.35-2.62-.26-1.09-.48-2.41-.94-3.66-.99-2.76-2.93-4.97-5.09-6.69-2.19-1.73-4.73-2.95-7.39-3.68-2.66-.74-5.48-.94-8.25-.53-2.76.45-5.35 1.49-7.69 2.87-2.35 1.37-4.47 3.08-6.38 4.93-.97.93-1.87 1.94-2.73 2.91-.84.95-1.71 1.94-2.37 2.16-.31.12-.71.11-1.05.02-.33-.09-.67-.31-1.04-.7-.74-.75-1.49-1.9-2.48-2.94-.97-1.05-2.25-1.98-3.67-2.51-1.4-.56-2.88-.77-4.31-.76-1.43 0-2.85.23-4.16.55-1.35.31-2.75.84-3.98 1.54-.61.34-1.18.72-1.57.9-.38.16-.49.15-.83.06-.27-.08-.43-.22-.74-.65-.28-.41-.58-.96-.89-1.53-1.22-2.33-2.8-4.64-4.53-6.67-1.74-2.06-3.8-3.97-6.15-5.44-2.34-1.47-4.9-2.57-7.58-3.25-2.74-.67-5.46-.83-8.22-.7-2.75.17-5.51.73-8.11 1.78s-5.01 2.66-7 4.62c-2.06 1.98-3.76 4.36-4.91 7-1.19 2.62-1.72 5.46-2.2 8.04-.13.63-.26 1.27-.42 1.82-.15.57-.37 1.05-.59 1.34-.21.29-.45.45-.74.5-.22.06-.71-.04-1.42-.21-2.87-.63-5.8-.53-8.57.07-2.71.58-5.45 1.66-7.79 3.24-.68.43-2.64 1.84-4.35 4.4-.86 1.27-1.67 2.8-2.24 4.58-.54 1.77-.97 3.87-.19 6.14.19.56.51 1.1.9 1.58.4.48.89.87 1.39 1.17 1.02.6 2.1.85 3.01 1.04 1.87.42 3.73.67 5.48.8 3.49.26 6.48.09 8.37-.01 4.49-.28 8.46-.78 13.32-1.37 1.85-.23 3.71-.45 5.61-.63 1.89-.16 3.94-.42 5.92-.75 2.43-.39 4.85-.86 7.22-1.29 2.37-.42 4.75-.72 7.15-.93 2.81-.24 5.65-.27 8.49-.19 2.83.09 5.64.32 8.4.82 4.24.77 8.6 2.01 12.99 2.79.84.15 1.69.31 2.55.47l.22.02c-.05 0-.1 0-.15 0h.07l.13.03.27.04.53.09 1.06.16 2.12.31c1.42.2 2.84.38 4.28.53 2.85.33 5.81.53 8.73.51 5.85-.02 11.6-.58 17.31-.73 6.14-.2 12.24.05 18.26 1 3.01.45 5.99 1.06 9.01 1.7 1.51.31 3.03.62 4.6.86l1.18.17 1.21.12c.2.02.4.04.61.04h.2.34.8c.28-.02.57-.04.87-.07.59-.02 1.23-.17 1.87-.3 1.27-.35 2.63-.92 3.66-1.81 1.47-1.12 2.43-2.58 2.99-3.86.17-.26.32-.51.53-.9.2-.44.25-.7.34-1.01.07-.3.13-.58.18-.88s.09-.59.12-.91c.04-.29.04-.76-.01-1.07zm-8.2 7.69c-1.09.28-2.21.41-3.25.33-3.45-.2-7.07-1.17-10.71-1.89-3.65-.75-7.36-1.36-11.09-1.72-6.85-.69-13.74-.43-20.49.06-3.38.22-6.74.49-10.07.56-3.34.09-6.65-.11-10.01-.44-1.19-.11-2.39-.24-3.58-.38l-3.71-.48h.13c-3.64-.53-7.24-1.28-10.86-2.14-3.73-.91-7.54-1.62-11.35-1.9-3.8-.27-7.61-.4-11.46-.12-3.35.21-6.72.76-9.93 1.36-1.61.29-3.21.57-4.81.82-1.62.27-3.12.44-4.78.59-6.58.6-13.08 1.74-19.6 2.21-3.32.23-6.63.2-9.86-.27-.8-.14-1.61-.26-2.4-.45-.82-.17-1.56-.36-2.14-.64-1.18-.55-1.67-1.56-1.74-2.95-.03-1.38.38-2.89 1.01-4.29.62-1.41 1.48-2.74 2.47-3.9 1.98-2.28 4.8-3.82 7.81-4.68 3.05-.86 6.26-1.08 9.23-.37.41.09.91.22 1.56.24.66.02 1.39-.13 1.95-.46.3-.15.58-.33.82-.56.27-.21.47-.45.65-.7.2-.25.33-.49.46-.74.14-.25.23-.49.32-.73.67-1.9.8-3.53 1.13-5.14.57-3.19 1.54-6.17 3.36-8.77 1.77-2.61 4.2-4.83 7.04-6.33 2.89-1.52 6.17-2.27 9.48-2.36 1.65-.05 3.31.06 4.94.31 1.61.25 3.19.73 4.71 1.35 6.18 2.4 10.67 7.72 13.66 13.61.43.75.77 1.6 1.68 2.47.96.86 2.32 1.23 3.63.84 1.2-.41 1.81-.94 2.51-1.28.68-.36 1.36-.65 2.09-.88 2.99-.9 6.29-1.15 8.71.25 1.21.69 2.15 1.77 3.21 3.14.56.67 1.14 1.45 2.16 2.09 1.04.64 2.36.86 3.59.52 1.27-.38 2.06-1.18 2.69-1.83.64-.68 1.17-1.33 1.72-1.96 1.08-1.26 2.22-2.43 3.45-3.54 2.72-2.44 5.85-4.45 9.25-5.43 1.7-.49 3.44-.7 5.2-.62 1.76.1 3.51.45 5.18 1.02 3.32 1.17 6.37 3.29 8.31 6.14.46.72.86 1.46 1.15 2.25s.47 1.63.65 2.55.38 1.98.9 3.04 1.33 1.97 2.24 2.63c.39.28.78.57 1.24.76l.67.32.7.21c.94.28 1.89.33 2.8.34 1.81-.04 3.42-.37 4.98-.56 1.55-.21 3.04-.32 4.5-.2 1.45.12 2.84.51 4.19 1.05 2.68 1.14 5.1 3.07 6.97 5.35.94 1.14 1.73 2.4 2.22 3.69.22.64.43 1.31.39 1.87 0 .34-.04.71-.09 1.06-.03.21-.07.45-.11.64-.68 1.08-1.51 2.37-2.71 3.39-.89.71-1.86 1.35-2.95 1.64z"/>
<path class="cloud-one"
  d="m278.15 72.29c-.59-.35-1.41-.37-2.28-.36s-1.8 0-2.53-.11c-2.42-.39-4.74-1.48-6.77-2.99-1.86-1.4-3.56-3.06-4.68-4.99-.28-.48-.52-.98-.77-1.55-.25-.54-.57-1.33-1.27-1.93-1.3-1.07-3.03-1.24-4.41-.84-1.24.35-2.25.94-3.24 1.48-.99.55-1.95 1.09-2.94 1.5-1.24.52-2.52.83-3.77.85-1.26 0-2.5-.18-3.7-.59-2.12-.65-4.12-1.6-5.98-2.81-1.85-1.21-3.57-2.69-4.92-4.49-1.37-1.84-2.26-4.01-2.53-6.24-.3-2.23.06-4.48.81-6.59 1.53-4.23 4.23-8.11 8.13-10.73 1.98-1.32 4.29-1.98 6.63-1.87 1.18.04 2.36.25 3.63.43 1.26.17 2.66.29 4.1 0 1.45-.28 2.75-.96 3.87-1.82 1.15-.87 2.06-2.15 2.65-3.35s1-2.27 1.57-3.17c.56-.91 1.28-1.72 2.14-2.46 1.93-1.66 4.36-2.73 6.89-3.2 2.54-.49 5.15-.39 7.62.39 2.18.67 4.21 1.72 6.05 3.01.92.65 1.8 1.35 2.64 2.11l.35.31c.15.14.31.27.48.39.33.23.7.43 1.08.55.75.27 1.56.31 2.3.15.77-.16 1.32-.62 1.5-1.03.18-.43.04-.74-.35-.97-.35-.2-.8-.06-1.14-.09-.43.05-.88-.03-1.26-.25-.27-.15-.51-.34-.72-.57-.88-.96-1.9-1.9-2.97-2.69-3.06-2.27-6.72-3.63-10.51-3.95-4.08-.3-8.15.56-11.71 2.57-1.75 1-3.43 2.35-4.63 4.13-1.22 1.78-1.75 3.68-2.71 4.85-.93 1.19-2.41 2.12-3.86 2.45-1.47.35-3.21.05-5.18-.13-.99-.09-2.03-.13-3.08-.06-1.05.09-2.12.26-3.13.59-2.03.62-3.87 1.65-5.5 2.9-3.37 2.48-6.05 5.92-7.41 9.91-.14.49-.33.98-.45 1.5-.12.51-.25 1.02-.37 1.52-.02.3-.21 1.13-.23 2.25 0 .56-.05 1.2.04 1.88.03.34.07.69.1 1.04.05.35.14.71.21 1.07.27 1.45.85 2.87 1.42 4.07.6 1.18 1.22 2.15 1.65 2.73.46.73 1.03 1.33 1.56 1.98.6.59 1.18 1.23 1.95 1.79 1.12.92 2.37 1.66 3.72 2.44 1.65.89 3.43 1.59 5.3 1.99 2.19.48 4.65.48 6.84-.24 1.7-.51 3.22-1.33 4.65-2.02.98-.47 1.94-.93 2.8-1.14.87-.22 1.51-.13 2.1.23.28.19.33.26.51.62l.64 1.52c.52 1.16 1.2 2.24 1.98 3.22 1.59 1.92 3.42 3.5 5.53 4.77 1.05.62 2.16 1.17 3.33 1.57.58.22 1.18.36 1.78.51.3.08.61.11.92.17l.23.04h.07l.13.02c.76.06 1.76.17 2.7.08.94-.08 1.82-.33 2.3-.71.4-.32.59-.72.54-1.07-.03-.23-.16-.43-.41-.57z" />
<path class="cloud-one"
  d="m264.59 30.77c-.15.01-.3.04-.45.06-1.45.22-2.97.72-4.24 1.74-.62.49-1.18 1.15-1.58 1.76-.2.3-.37.57-.5.73-.14.17-.25.27-.4.36-.38.2-.6.26-1.13.19-.54-.08-1.42-.23-2.24-.15-1.65.14-3.14.94-4.27 1.91l-.36.32c-.4.39 1.42 2.12 1.71 1.84l.27-.24c.87-.75 1.85-1.24 2.86-1.32.51-.05.95.03 1.72.14.38.05.88.07 1.37-.02.5-.09.93-.26 1.34-.5.42-.24.81-.6 1.08-.95.28-.35.46-.65.63-.9.33-.5.65-.86 1.06-1.19.82-.65 1.89-1.04 3.06-1.22.12-.02.24-.04.36-.05.41-.04.25-2.55-.29-2.49z"/>
<path 
  d="m504.51 364.69c0-.31-.12-.59-.18-.89-.14-.28-.32-.54-.48-.82-.15-.25-.48-.53-.63-.69-.17-.17-.33-.28-.49-.4-.32-.26-.65-.47-.97-.66-.32-.21-.64-.39-.96-.55-1.28-.69-2.57-1.22-3.85-1.74-2.58-1.01-5.18-1.85-7.78-2.62-2.6-.79-5.21-1.48-7.82-2.16l-1.96-.49-.98-.24-.49-.12-.41-.1h-.43l-4 .05c-2.01.03-4.01.07-6.01.12-5.31-.2-12.41.04-17.49.08-11.88.13-23.81.26-35.69.38-21.82.17-43.55.43-65.31.77-9.83.15-19.69.29-29.55.3-12.31.01-24.31-.25-36.46-.35-10.7-.05-21.2-.1-31.74-.15-10.54-.04-21.09-.14-31.76-.46-5.44-.17-10.86-.33-16.28-.49l-2.03-.07-1.15-.03-.63.08-.57.11c-1.5.32-2.99.99-4.2 2.04-2.42 2.15-3.46 5.32-3.4 8.34.04 1.52.35 3.05 1.01 4.48.15.36.37.7.56 1.05.23.33.46.67.7.97.5.6 1.09 1.17 1.79 1.64 1.31.88 2.79 1.43 4.3 1.69.75.13 1.52.2 2.25.21.68.01 1.31.03 1.98.07 2.65.14 5.42.46 8.33.23.36-.03.73-.07 1.09-.12l.92-.1c.62-.04 1.27-.06 1.93-.07 1.33 0 2.68 0 4.03.03 21.98.43 43.06.2 64.84-.02 22.03-.19 43.83.03 65.77.28 21.99.25 43.47.23 65.49 0 10.38-.11 20.61-.17 30.82-.19h15.31c5.15.02 10.31.05 15.51.07l2.88-.6c.92-.2 1.84-.41 2.76-.61 1.84-.42 3.69-.86 5.53-1.33 2.63-.66 5.25-1.37 7.86-2.14 1.31-.38 2.61-.78 3.94-1.23.67-.24 1.33-.47 2.05-.82.07-.03.23-.11.37-.2l.42-.25c.25-.19.51-.38.71-.62.19-.24.35-.5.44-.79.05-.14.08-.29.11-.44v-.45zm-262.98-7.65c6.03.03 12.1.06 18.59.09 7.85.04 15.7.03 23.54-.03 9.26-.03 18.5-.05 27.76-.08 7.13 0 14.31-.02 21.39-.03 19.55.03 39.49-.03 59.47-.14 9.99-.07 19.98-.15 29.93-.22 4.98-.07 9.94-.14 14.89-.21 2.47-.04 4.95-.07 7.41-.11l3.7-.06h.92l.29-.02.5-.01c4.38-.11 10.67-.13 15.53-.37 1.95.02 3.89.04 5.84.06h4.17l1.04.01h.52c.2 0 .09 0 .2.02l.53.14.07.12c1.09 2.02 1.76 4.28 1.91 6.57-.19-.01-.39-.03-.56-.04-1.15 0-2.31-.03-3.51-.06-.85-.02-1.7-.03-2.55-.02l-6.62.09c-6.22.09-12.45.17-18.68.26-26.8.24-52.82.08-79.68.21-6.84-.05-13.68-.09-20.53-.03-1.67.01-3.41 0-5.08-.04-.99-.02-5.39-.04-10.16-.02-4.76.05-9.87.1-12.27.13-2.84.02-5.39.02-8.53.15-2.39.09-4.8.19-7.38.24l-9.34.12c-3.67.01-7.34.03-11.02.04-2.83 0-5.68.02-8.48-.02-7.75-.11-15.66-.26-23.58-.44-3.96-.1-7.92-.21-11.86-.31-1.97-.07-3.94-.14-5.9-.21-.98-.03-1.96-.07-2.94-.1l-1.46-.05h-.37l-.12-.01h-.2c-2-.02-4.98-.21-6.98 0 .07-2.04 0-4.08-.19-6.1 2.96.1 5.83.2 8.75.31 3.48.08 7.07.15 11.02.18zm-37.53 14.23c-.5-.02-1.03-.04-1.57-.06-.28 0-.56 0-.84-.01-.26 0-.51 0-.77-.02-1.02-.05-2.09-.25-3.11-.67-.5-.2-1.02-.49-1.46-.78-.43-.3-.83-.69-1.2-1.16-.7-.89-1.2-2.03-1.44-3.28-.22-1.25-.2-2.59.08-3.87.31-1.27.89-2.48 1.73-3.42.84-.93 1.97-1.57 3.22-1.9.31-.08.63-.15.95-.19l.19-.03h.02.12l.55.02c.74.02 1.47.04 2.19.06 1.44.04 2.86.08 4.22.13 1.11.04 2.19.07 3.23.1.55 5.11.23 10.31-.92 15.32-.62 0-1.46-.03-2.51-.09-.79-.04-1.68-.09-2.66-.15zm8.96-.01-.8.1c-.13.02-.26.03-.4.04 1.07-4.96 1.36-10.08.86-15.13 2.58.08 4.82.15 6.6.21.49 4.88.2 9.84-.86 14.64-.68 0-1.36 0-2.04 0-1.09.01-2.19.03-3.36.16zm262.17.45c-67.48-.07-133-.14-200.68-.21-17.23-.13-34.46-.26-51.7-.39-.6 0-1.21 0-1.82 0 .42-2.02.72-4.07.88-6.13 2.11.38 5.05.34 7.12.44 4.72.22 9.46.44 14.18.55 8.67.23 17.32.27 25.97.09 3.91-.08 7.83-.18 11.75-.17 4.89 0 9.66.25 14.49.39 8.49.25 16.76-.3 25.23-.55 8.63-.26 17.2.13 25.83.36 8.74.22 17.11-.15 25.76-.43 8.75-.28 17.41-.01 26.13.22 8.74.22 17.27.13 26.01-.15 9.75-.32 19.16-.38 28.9-.21 8.56.15 17.25.18 25.55-.71.35-.04.69-.09 1.01-.14-.12 2.41-.79 4.79-1.95 6.9l-.59.13h-2.07zm12.8-2.57c-1.8.48-3.6.93-5.41 1.36l-1.62.38c.87-2.13 1.34-4.41 1.38-6.71.05-2.48-.44-4.95-1.36-7.25 2.11.56 4.22 1.15 6.32 1.75 1.44.43 2.87.87 4.3 1.34-.94 2.58-.79 5.55.41 8.02-1.34.38-2.67.76-4.01 1.12zm13.6-4.33s-.08.07-.12.1l-.07.04-.24.12c-.75.35-1.62.65-2.49.94-1.38.45-2.79.88-4.2 1.3-1.1-1.96-1.29-4.37-.51-6.48 1.28.45 2.54.93 3.77 1.45.82.37 1.64.75 2.38 1.18.71.38 1.55 1.07 1.47 1.08.05.09.07.21 0 .29z" />
<path 
  d="m194.49 395.68c.161-.93 2.62-.42 2.48.4l-.11.73c-.59 4.62.19 9.43 2.35 13.55 2.13 4.14 5.59 7.56 9.67 9.84.21.12.43.23.64.34v.01c.73.37-.3 2.66-1.15 2.23-.24-.12-.48-.25-.71-.38-4.49-2.5-8.31-6.27-10.68-10.88-2.41-4.59-3.27-9.93-2.61-15.03z"/>
<path 
  d="m384.87 395.66c.16-.65 2.58.02 2.45.57l-.11.5c-.64 3.14-.51 6.44.37 9.52.89 3.09 2.54 5.95 4.75 8.27l.35.36-.02-.02c.409.401-1.29 2.25-1.77 1.78l-.39-.4c-2.49-2.61-4.34-5.82-5.34-9.3-.99-3.47-1.14-7.18-.41-10.72z"/>
<path 
  clip-rule="evenodd" d="m218.74 393.41c1.39-.94 3.03-1.38 4.73-1.23 1.71.14 3.38 1.13 4.34 2.54l.01.02c.99 1.4 1.35 3.15 1.14 4.79-.03.23-.09.46-.14.68v.07c0 .04-.03.07-.03.11-.01.05-.02.1-.03.15-.01.03-.03.05-.04.08-.06.22-.12.44-.2.66-.58 1.55-1.74 2.9-3.25 3.69-1.51.8-3.36.91-4.95.39-1.6-.51-2.99-1.58-3.86-3.05-.88-1.46-1.1-3.34-.61-4.96.48-1.63 1.52-3 2.89-3.94zm4.48 1.27c-1.03-.1-2.2.21-3.08.81-.89.6-1.6 1.55-1.89 2.56s-.17 2.08.37 2.98c.53.9 1.44 1.61 2.46 1.93s2.12.25 3.04-.23l-.01.01c.93-.48 1.68-1.34 2.06-2.36.08-.2.13-.401.18-.61.05-.19.09-.38.12-.57.13-1.07-.11-2.19-.71-3.03-.6-.85-1.51-1.39-2.54-1.49z" fill-rule="evenodd"/>
<path 
  clip-rule="evenodd" d="m407.17 393.2c1.49-.86 3.26-1.04 4.88-.68.22.05.44.13.66.2h.07c.04.01.07.03.11.04.05.01.1.02.15.04.03.02.05.03.08.05.22.08.43.16.64.26 1.49.73 2.73 2.01 3.37 3.59l-.01.02c.65 1.59.58 3.44-.09 4.97-.66 1.54-1.87 2.83-3.41 3.55-1.53.74-3.42.78-4.99.13-1.57-.64-2.84-1.8-3.64-3.26-.8-1.48-1.08-3.15-.77-4.83.31-1.7 1.45-3.26 2.95-4.08zm4.35 1.76c-1.05-.24-2.2-.11-3.09.41-.91.51-1.53 1.36-1.73 2.38-.19 1.01-.01 2.21.51 3.14.52.94 1.39 1.74 2.37 2.13s2.05.37 3-.08c.95-.44 1.74-1.28 2.16-2.26l.01.01c.43-.99.46-2.08.07-3.05-.39-.96-1.17-1.8-2.15-2.27-.19-.1-.39-.17-.59-.24-.19-.07-.37-.12-.56-.17z" fill-rule="evenodd"/>
<path 
  clip-rule="evenodd" d="m159.77 120.63c4.22 0 8.27.8 12.25 1.66 3.98.89 7.9 1.9 11.87 2.91 3.68.95 7.37 1.89 11.03 2.91l3.89 1.1c.5.14.99.3 1.48.48.7.26 1.361.49 2.03.71.1.05.22.1.33.15 9.279.25 18.56.67 27.82 1.27l6.98.48 6.97.62 15.37 1.39c1.68.16 1.42 2.649-.26 2.5l-15.31-1.38-6.94-.61-6.95-.48c-9.27-.6-18.56-1.03-27.85-1.28h-.11c-.36.299-.85.52-1.17.75l-.04.03-.03.02-.08.05-.33.19-.67.38-1.35.77c-.91.51-1.81 1.01-2.72 1.52-1.82 1.01-3.65 1.98-5.46 2.92-.65.34-1.29.72-1.94 1.09l-2.52 1.43c-.71.4-1.41.82-2.11 1.25-.57.36-1.08.74-1.58 1.12-.66.5-1.24.82-1.87 1.22-1.07.65-4.35 3.11-4.79 3.39-.37.23-.74.5-1.08.78-1.4 1.13-2.85 2.18-4.32 3.21-5.54 4.34-11.21 8.16-16.54 12.75-1.23 1.07-2.43 2.18-3.63 3.29l-1.27 1.18c.86.17 1.76.31 2.64.45 5.62.85 11.32 1.53 17 2.18l8.55.95c2.89.37 5.72.8 8.57 1.3 2.84.49 5.67 1.05 8.49 1.67 2.84.62 5.57 1.34 8.34 1.83 5.56 1.04 11.21 1.65 16.89 2.13s11.39.82 17.11 1.18 11.44.73 17.17 1.18c5.73.43 11.46 1.03 17.16 1.62 11.41 1.18 22.86 2.14 34.36 3.03 11.499.92 23.03 1.72 34.61 2.51 21.53 1.43 43.07 2.69 64.61 3.85 7.64.4 15.28.81 22.91 1.21l8.81.5c3.08.18 6.08.35 9.03.52 1.45-.04 3.17-.04 5.11 0 1.17.01 2.45.15 3.65.28.6.07 1.2.13 1.79.16.6.03 1.14.02 1.8 0 .46-.01.95-.01 1.46-.01-2.69-3.98-5.74-7.72-9.18-11.07-4.32-4.18-8.77-8.24-13.41-12.07l-.74-.61c-.84-.689.729-2.639 1.59-1.94l.74.61c4.7 3.88 9.19 7.98 13.57 12.22 4.27 4.17 8 8.89 11.14 13.96.23.22.45.47.62.74.29.49.45 1.01.51 1.52l-.03-.01c.02.26.02.54 0 .78l-.05.49c-.03.319-.07.64-.1.95-.27 2.52-.53 4.91-.75 6.99 0 .01-.07.69-.07.69l-.04.4-.15 1.26-.62 5.06c-.43 3.37-.89 6.75-1.38 10.13-.99 6.75-2.09 13.52-3.32 20.27-1.22 6.75-2.59 13.5-4.04 20.22-1.44 6.73-2.92 13.41-4.09 20.14-2.36 13.46-3.8 27.08-4.4 40.66-.15 3.4-.24 6.79-.29 10.18v.64c.009.17-.03.45-.06.57-.03.14-.06.28-.09.41-.13.53-.33 1.05-.6 1.54-.54.97-1.33 1.79-2.28 2.36-.95.58-2.02.88-3.13.92l-2.6-.02c-6.78-.07-13.54-.14-20.26-.21-9.73-.1-19.62-.2-29.42-.13-12.73.04-25.47.19-38.23 0-5.4-.08-10.8-.19-16.2-.35-5.42-.13-10.82-.51-16.18-.64-8.91-.2-17.25-.19-25.51.03-10.85.3-19.64.77-29.47 1.2-4.15.18-10.64.46-18.17.62s-16.08.22-24.33.1c-8.24-.1-16.2-.36-22.48-.65-.69-.03-1.36-.06-2.01-.09-1.03.16-2.33.3-3.65.53-1.76.31-3.46.81-4.64 1.51l-.2.11-.12.06-.37.2c-.47.31-.97.59-1.42.93-.45.35-.92.68-1.34 1.07l-.64.57-.6.62c-1.6 1.64-2.91 3.59-3.82 5.7-1.88 4.19-2.02 9.1-.02 13.2.97 2.06 2.4 3.93 4.09 5.51 1.709 1.62 3.59 2.8 5.79 3.56 2.18.78 4.56 1.22 6.94 1.57 2.39.33 4.82.54 7.24.71 3.52.23 7.12.42 10.65.51 2.3.06 4.57.04 6.85-.1 2.29-.12 4.51-.41 6.87-.66 3.95-.42 7.96-.55 11.92-.46 3.26.1 6.31.2 9.34.29 3.97.14 7.17.37 10.74.58 3.011.18 9.431.48 15.42.68 5.99.2 11.529.38 12.78.42 2.1.09 4.3.15 6.4.18 8.62.11 17.26.31 25.89.5 16.95.18 33.61.41 50.28.22 16.67-.21 33.33-.32 50.23-.7 7.86-.2 15.72-.4 23.57-.6l8.35-.21c1.07-.03 2.14-.03 3.21-.03h4.43c1.08.05 2.619.06 3.14.42 1.12.77-.99 1.39-3.68 1.66-10.47 1.05-21.42 1.19-32.22 1.19-1.621.004-3.234.01-4.843.019.031.017.063.034.093.051 1.48.84 2.84 1.93 3.95 3.24 1.13 1.3 1.96 2.81 2.61 4.36.61 1.57.94 3.23 1.04 4.86l-.02-.02c.05 1.18.06 2.39-.12 3.56-.19 1.53-.62 3.02-1.23 4.42-.48 1.21-1.17 2.32-1.89 3.39-.32.43-.63.84-.94 1.25-.32.4-.66.77-.98 1.15-.45.47-.92.86-1.36 1.23-.48.32-.95.64-1.44.97-.87.48-2.74 1.56-4.69 2.03-1.93.49-3.79.62-4.2.56-.35-.02-.7-.03-1.06-.03l-1.06-.08c-2.87-.19-5.69-1.251-8.03-2.99-2.36-1.61-4.26-3.9-5.35-6.54-1.11-2.64-1.46-5.56-1.03-8.31.42-2.75 1.41-5.38 2.93-7.67 1.32-2.043 3.095-3.918 5.287-5.2-4.681.099-9.377.23-14.137.4-5.52.2-10.97.34-16.42.43s-10.9.14-16.41 0c-11.01-.23-21.94-.6-32.98-.48-10.92.11-21.48.29-32.51-.15-10.89-.43-21.72-1.19-32.63-1.63-5.34-.2-10.63-.4-15.9-.6-3.647-.132-7.25-.196-10.87-.1.222.106.442.216.66.33 1.28.65 2.46 1.5 3.58 2.41 1.07.96 2.12 1.98 2.95 3.17.27.33.49.7.72 1.06.52.65.96 1.52 1.29 2.13l.05.08.03.05.07.15.28.63c.18.42.34.86.5 1.29.29.88.54 1.78.7 2.71.32 1.85.34 3.79 0 5.66-.67 3.76-2.75 7.19-5.53 9.52-1 .85-2.061 1.66-3.21 2.3-1.48.84-3.07 1.5-4.72 1.91-1.39.34-2.82.6-4.27.6-1.2.01-2.32-.001-3.42-.15-1.45-.17-2.58-.56-3.8-1.04-.52-.18-1.29-.58-2.2-1-.429-.249-.89-.52-1.37-.79-.47-.3-.92-.63-1.37-.94-1.76-1.32-3.16-2.84-3.4-3.24-.23-.31-.47-.63-.72-.94l-.66-.98c-1.84-2.63-2.76-5.93-2.68-9.18-.05-.8.09-1.59.15-2.38.16-.78.27-1.57.53-2.32.43-1.53 1.13-2.96 1.96-4.29 1.568-2.497 3.761-4.536 6.249-6.034-1.857-.051-3.714-.141-5.579-.226-4.95-.26-9.9-.31-14.87-.89-2.74-.34-5.52-.82-8.2-1.9-1.33-.54-2.63-1.25-3.8-2.11-1.16-.87-2.22-1.81-3.2-2.88-1.939-2.12-3.49-4.67-4.34-7.48-.87-2.819-.92-5.85-.37-8.71 1.289-6.249 5.44-11.76 11.08-14.7 1.34-.76 3.17-1.38 4.98-1.7-.55-.57-.98-1.2-1.27-1.82-.29-.58-.46-1.28-.56-1.68-.11-.46-.22-.87-.32-1.25-.2-.75-.35-1.34-.46-1.76-1.43-5.6-2.97-11.46-4.46-17.04l-9.07-34.41-4.49-17.22-4-17.339c-1.32-5.67-2.64-11.321-3.96-16.971-1.31-5.66-2.69-11.21-4.02-16.81l-1.5-6.28-.64-2.09c-.84-2.78-1.65-5.56-2.43-8.34-1.57-5.56-3.04-11.13-4.48-16.71l-2.11-8.37-.26-1.05-.13-.52-.07-.26c-.03-.08-.08-.31-.09-.47-.04-.35-.01-.75.1-1.11.03-.11.07-.2.11-.29-1.11-.38-2.42-1.1-3.39-1.49l-.11-.05-.06-.03-.2-.09-.8-.35-1.62-.67c-1.08-.44-2.18-.85-3.29-1.23-2.22-.77-4.49-1.43-6.78-1.98-4.59-1.1-9.281-1.75-13.91-1.97-1.67-.08-3.38-.06-5.07.01l-.82.04-.42.02c-.26.03-.5.05-.75-.05l-.31-.09-.25-.09c-.169-.05-.33-.13-.49-.2-.32-.15-.63-.33-.92-.53-1.17-.82-2-2.05-2.35-3.39-.64-2.29.26-4.88 2.12-6.29 1.32-.99 2.43-1.87 3.58-2.79 1.5-1.2 2.76-2.09 4.16-3.11 2.36-1.72 9.88-7.58 10.86-8.28.83-.59 1.68-1.241 2.47-1.87 3.28-2.58 6.75-4.99 10.37-7.17 3.5-2.22 7.2-4.131 10.88-5.83.93-.43 1.88-.86 2.89-1.24.51-.19 1.02-.35 1.53-.5.51-.16 1.02-.29 1.54-.41 2.07-.5 4.21-.74 6.31-.74zm72.15 265.76c-3.02-2.48-7.05-3.6-10.91-2.92-3.45.6-6.6 2.05-9.33 4.28-2.72 2.18-4.84 5.47-5 9.07-.1 1.77.2 3.48.72 5.07.51 1.6 1.23 3.11 2.15 4.57.9 1.44 1.96 2.81 3.27 3.96 1.3 1.14 2.81 2.08 4.45 2.68 1.61.59 3.29.82 4.93.9 1.65.09 3.28-.08 4.97-.32 1.91-.29 3.87-.85 5.56-1.98 1.36-.91 2.5-2.1 3.41-3.41 2.02-2.91 2.99-6.39 2.68-9.83-.15-1.88-.69-3.73-1.46-5.48-.14-.32-.34-.66-.54-1.01-1.41-2.06-2.95-3.97-4.9-5.58zm181.49-1.17c-.92-.01-1.83-.01-2.74.04-.75.05-1.49.09-2.21.21-.75.11-1.51.27-2.25.46-1.71.43-3.21 1.2-4.46 2.35-1.26 1.14-2.28 2.6-2.99 4.2-1.29 2.88-1.95 5.88-1.84 8.97.03 1.55.41 3.1 1.08 4.52.65 1.44 1.69 2.71 2.97 3.65 1.25.94 2.65 1.61 4.09 2.06 1.43.47 2.89.8 4.41.97 1.5.18 3.04.25 4.55-.03 1.5-.27 2.98-.78 4.26-1.63 1.24-.86 2.3-1.9 3.21-3.04.91-1.15 1.67-2.39 2.43-3.7.86-1.48 1.56-3.15 1.68-4.96v-.01c.11-1.44-.15-2.89-.6-4.24-.98-2.99-2.85-5.59-5.36-7.33-1.37-.95-2.93-1.64-4.57-2.13-.47-.15-1.08-.22-1.66-.36zm-195.48-83.69c.12 1.44.26 2.88.46 4.33.34 2.49.81 4.95 1.28 7.4 1.04 5.43 1.99 10.86 2.83 16.34.46 2.979.93 5.97 1.34 8.96.18 1.31.61 3.12.53 4.51 11.49.12 23-.09 34.52-.66l.01.01c.409-.02.82-.05 1.24-.07-.27-1.17-.33-2.73-.47-3.8l-.02-.12v-.07l-.26-2.93c-.11-1.21-.21-2.42-.31-3.63-.19-2.43-.39-4.86-.58-7.3-.37-4.88-.71-9.75-1-14.52-.1-1.73-.26-3.48-.39-5.22l-.15-2.01c-1.13-.04-2.26-.09-3.39-.13-11.84-.38-23.67-.78-35.64-1.09zm-38.08-1.06c1.92 7.28 3.84 14.62 5.74 22.04l4.15 16.27c.3 1.47 1.26 2.55 2.56 3.03.32.11.65.19.99.22l1.32.07 2.81.15 5.58.26c3.72.15 7.44.28 11.16.38l-.01.01c2.59.07 5.18.11 7.77.15-.38-1.2-.57-2.85-.8-3.97l-.04-.13v-.07l-.04-.23-.45-2.79c-.19-1.24-.39-2.48-.59-3.73-.38-2.49-.76-5-1.14-7.51-.74-5.01-1.43-10.03-2.05-14.96-.25-1.79-.5-3.59-.75-5.38l-.38-2.79c-.89-.02-1.78-.05-2.67-.07-6.34-.12-12.7-.25-19.04-.38l-6.75-.14c-.86-.03-1.73-.06-2.59-.11-1.23-.08-2.41-.13-3.58-.18-.36-.04-.79-.08-1.2-.14zm229.19 12.58c-.18 1.08-.35 2.15-.51 3.23-.74 4.91-1.59 9.811-2.53 14.7-.51 2.67-1.02 5.341-1.58 8-.22 1.02-.37 2.43-.76 3.53 11.19.06 22.37.07 33.52.06.46-.01.98.02 1.31-.02.37-.05.75-.141 1.1-.28.7-.28 1.31-.76 1.74-1.38.41-.6.72-1.39.67-2.06l.02-2.82c.04-3.76.15-7.51.32-11.26l-.02.01c.14-3.01.33-6.01.56-9.01-2.04.15-5.19-.23-7.29-.35l-.2-.02h-.12l-.37-.03-1.49-.12c-1-.08-1.99-.17-2.99-.25-1.99-.17-3.99-.35-6-.52-4.01-.36-8.03-.73-12.06-1.09-1.11-.11-2.21-.21-3.32-.32zm-37.37-3.74c-.27 2.02-.47 4.04-.65 6.07-.44 4.95-.98 9.88-1.62 14.82-.34 2.7-.68 5.4-1.08 8.08-.18 1.2-.24 2.92-.71 4.09 9.56.08 19.14.08 28.88.1 1.57.02 3.13.02 4.7.02-.07-1.17.33-2.84.49-3.98l.03-.11v-.07l.04-.21.15-.83c.11-.55.21-1.1.31-1.66l-.01-.01c.21-1.11.42-2.22.63-3.34.42-2.23.86-4.47 1.31-6.71.87-4.29 1.77-8.56 2.71-12.75-6.2-.6-12.37-1.22-18.44-1.87-2.86-.28-5.75-.57-8.62-.85-2.71-.26-5.41-.53-8.12-.79zm-37.41-3.11c-.08.71-.16 1.43-.22 2.16-.19 2.29-.25 4.58-.31 6.86-.14 5.05-.37 10.09-.7 15.15-.18 2.76-.35 5.52-.58 8.27-.07.86-.07 1.97-.2 2.98 4.7.16 9.41.29 14.14.42 6.35.17 12.68.26 19.02.32-.27-1.16.08-3.09.18-4.36l.01-.11v-.07l.02-.21.1-.84c.07-.56.13-1.12.2-1.68.14-1.12.28-2.24.42-3.37l.01.02c.28-2.25.58-4.51.89-6.77.61-4.52 1.28-9.02 1.99-13.43.13-.8.24-1.6.36-2.41-.32-.04-.65-.07-.97-.1l-9.48-.89c-2.62-.23-5.07-.39-7.5-.55-3.19-.21-5.77-.46-8.65-.72-1.81-.17-5.15-.42-8.73-.67zm-75.07-3.37c.03 1.2.07 2.39.16 3.6.18 2.41.48 4.81.78 7.2.66 5.29 1.21 10.59 1.64 15.92.24 2.9.48 5.81.65 8.72.07 1.139.3 2.68.21 3.95 6.07-.32 12.13-.67 18.18-.93l.01-.01c3.64-.16 7.28-.28 10.91-.36-.12-1.07-.07-2.33-.12-3.24v-.19l-.01-.22v-.87l-.02-1.74c-.01-1.16-.03-2.33-.03-3.5-.01-2.34-.02-4.69-.02-7.04 0-4.7.04-9.4.11-14 .03-1.66.01-3.35.01-5.03v-1.1c-10.92-.3-21.701-.75-32.46-1.16zm34.62 1.24c-.05.93-.08 1.86-.08 2.8 0 2.32.11 4.64.23 6.96.26 5.13.4 10.25.42 15.39.02 2.8.03 5.61-.01 8.41-.03.94.06 2.17-.03 3.26 2.77-.05 5.55-.08 8.32-.08 7.26.01 14.57.09 21.85.51 1.68.08 3.37.15 5.06.21-.02-1.01.09-2.16.1-3v-.12l.01-.07v-.21l.05-.86c.03-.57.07-1.15.1-1.72.07-1.15.14-2.3.21-3.45.14-2.3.3-4.62.47-6.93.34-4.63.73-9.24 1.16-13.76.16-1.64.27-3.3.41-4.95v.01c.01-.14.02-.271.03-.41-5.4-.37-10.78-.72-11.89-.8-1.69-.14-3.47-.24-5.16-.32-3.49-.16-6.96-.32-10.44-.48l-10.45-.38c-.12-.01-.24-.01-.36-.01zm123.8-30.94c-1.04 4.73-2.26 9.4-3.05 14.18-.8 4.82-1.39 9.55-2.72 14.26-.75 2.68-1.58 5.31-2.16 8.06-.05.23-.08.47-.13.7 3.94.31 7.87.64 11.81.99 4.79.42 9.6.84 14.39 1.32 2.13.21 5.19.32 7.32.83.31-3.73.69-7.451 1.13-11.16.89-7.46 2.05-14.9 3.52-22.28h-.01c.25-1.25.51-2.5.77-3.75-2.19.08-5.6-.4-7.86-.59l-.22-.03h-.13l-.4-.04-1.6-.17c-1.07-.12-2.14-.23-3.21-.35-2.14-.24-4.29-.47-6.45-.71-3.659-.42-7.33-.84-11-1.26zm-39.63-5.62c-.14 1.29-.3 2.6-.5 3.91-.76 4.9-1.72 9.76-2.23 14.7-.5 4.85-.79 9.61-1.83 14.39-.47 2.15-.98 4.27-1.37 6.44 3.65.51 7.29 1.02 11.01 1.38 3.97.39 7.96.66 11.93.92 4.15.28 8.3.58 12.45.9.18-.88.36-1.76.55-2.64.44-2.06.88-4.131 1.32-6.2.37-1.75.74-3.5 1.09-5.26.289-1.45.52-2.82.73-4.18h-.01c.29-1.79.61-3.21.94-4.81.56-2.691 2.1-11.548 2.35-12.66.12-.53.22-1.07.32-1.61-1.86-.23-3.71-.45-5.56-.67-2.15-.29-4.3-.59-6.44-.89-4.28-.61-8.54-1.26-12.74-1.92-3.04-.46-6.13-.93-9.2-1.39-.94-.14-1.87-.27-2.81-.41zm-40.24-3.72c-.05 2.1-.14 4.21-.33 6.35-.45 5.03-1.11 10.02-1.31 15.07-.2 4.96-.2 9.81-.94 14.73-.19 1.25-.39 2.49-.58 3.74 2.72.24 5.43.46 8.16.64 8.64.57 17.08.97 25.65 2.12l1.53.21c.31-2.08.62-4.16.93-6.24.26-1.76.53-3.54.77-5.31.2-1.46.34-2.84.47-4.21.17-1.8.41-3.25.64-4.86.4-2.72 1.38-11.65 1.56-12.77.15-.95.27-1.95.36-2.9.11-1.09.25-2.19.37-3.28-2.06-.29-4.12-.57-6.18-.83-3.37-.43-6.76-.81-10.15-1.13l-.01-.01c-2.81-.27-5.44-.44-8.05-.58-3.44-.21-6.21-.38-9.3-.57-.89-.06-2.14-.11-3.59-.17zm-44.17-.58c.08 1.57.15 3.14.15 4.74-.01 5.11-.16 10.22.1 15.34.25 5.03.68 9.93.36 14.97-.07 1.08-.15 2.16-.22 3.23 3.13.01 6.25.01 9.34.01 4.35.02 8.71.25 13.16.58 5.3.42 10.58.94 15.87 1.42.09-1.16.19-2.31.29-3.47.15-1.82.31-3.63.44-5.45.11-1.5.16-2.91.21-4.31.06-1.84.21-3.32.34-4.97.22-2.79.65-11.918.76-13.07.09-.97.15-2 .18-2.97.06-1.86.16-3.71.27-5.56-2.16-.06-4.54-.12-6.85-.14-5.2-.06-10.009-.01-11.1-.03-1.82-.01-3.75-.02-5.58 0-5.92.05-11.83-.09-17.73-.33zm-38.09-2.17c.24 1.67.46 3.35.61 5.06.48 5.31.74 10.61 1.43 15.9.67 5.19 1.49 10.25 1.58 15.49.02.84.03 1.69.03 2.53 1.48.08 2.95.15 4.44.25 8.87.58 17.68 1.19 26.61 1.21h1.46v-2.93l-.03-5.54c-.02-1.53-.09-2.95-.17-4.37l-.02.01c-.1-1.86-.09-3.37-.11-5.05-.03-2.841-.48-12.09-.47-13.27 0-.98-.03-2.02-.09-3.01-.08-1.41-.13-2.83-.18-4.24-.62-.03-1.23-.05-1.85-.08-11.2-.43-22.24-1.12-33.24-1.96zm-43.79-3.89c.46 2.35.88 4.72 1.19 7.15.71 5.47 1.22 10.95 2.19 16.39.95 5.34 2.07 10.52 2.49 15.94.06.84.12 1.67.18 2.5 6.42.22 12.79.35 19.32.36 6.63.03 13.13.11 19.68.4l-.14-1.91-.48-5.74v.02c-.15-1.59-.34-3.06-.53-4.52-.26-1.92-.37-3.48-.53-5.22-.26-2.931-1.49-12.478-1.6-13.7-.09-1.02-.22-2.09-.37-3.11-.24-1.63-.44-3.27-.64-4.9-13.58-1.08-27.1-2.36-40.76-3.66zm-43.06.67c.9 3.59 1.7 7.2 2.66 10.77l2.89 10.69-.02.01c1.75 6.51 3.49 13.03 5.23 19.59.58-.16 1.33-.27 2.15-.33 8.49-.61 17.33-.29 26.05.16 2.6.14 5.17.25 7.73.35l-.24-1.77-.83-5.92c-.24-1.63-.51-3.15-.79-4.65-.36-1.98-.57-3.59-.82-5.39-.44-3.03-2.119-12.878-2.27-14.14-.13-1.059-.31-2.16-.5-3.21-.43-2.369-.82-4.74-1.19-7.12-2.37-.23-4.74-.46-7.12-.68-6.8-.65-13.6-1.29-20.4-1.93l-7.23-.72c-.92-.1-1.85-.2-2.77-.33-1.3-.16-2.55-.32-3.77-.48.42 1.7.83 3.4 1.24 5.1zm256.48-23.62c-.58 3.09-1.23 6.16-2.01 9.24-1.22 4.87-2.47 9.7-3.14 14.69-.56 4.13-1.03 8.17-1.79 12.25 2.4.25 4.79.5 7.19.77 5.13.59 10.281 1.19 15.42 1.78 2.4.29 5.86.5 8.16 1.15 1.12-5.37 2.3-10.71 3.38-16.08l.02.02c1.43-7.07 2.73-14.17 3.9-21.3-2.18.32-6.51-.23-9.25-.42l-.23-.03h-.13l-.42-.04-1.7-.16c-1.13-.1-2.26-.21-3.4-.31-2.269-.21-4.55-.42-6.83-.64-3.049-.31-6.11-.61-9.17-.92zm-42.34-4.51c-.43 4.08-.99 8.09-1.75 12.15-.92 4.93-1.86 9.83-2.22 14.85-.21 2.91-.38 5.77-.63 8.64 2.05.36 4.1.71 6.18 1.02 4.25.63 8.51 1.16 12.76 1.65 4.72.54 9.42 1.08 14.11 1.62h-.02c1.33.14 2.66.29 3.99.43.57-3.39 1.22-6.76 1.9-10.13 1.58-8.8 3.38-17.4 5.18-26.01-.58-.06-1.16-.12-1.75-.18-9.15-.95-18.29-1.94-27.24-2.95-3.24-.33-6.53-.68-9.8-1.02-.24-.02-.471-.05-.71-.07zm-42.57-3.55c-.17 4.62-.491 9.14-1.05 13.75-.61 5.07-1.25 10.1-1.3 15.22-.02 2.1-.03 4.17-.05 6.24l3.21.12c9.32.33 18.44.74 27.66 2.22 2.21.35 4.41.74 6.6 1.13.25-2.06.52-4.11.81-6.16 1.15-9.9 2.58-19.55 3.99-29.25-3.1-.32-6.2-.63-9.31-.95-3.6-.33-7.19-.67-10.79-1-2.97-.25-5.76-.43-8.53-.58-3.63-.2-6.57-.44-9.85-.66v.01c-.4-.03-.87-.06-1.39-.09zm-24.52-.8c-1.93-.05-3.95-.03-5.87.02-3.95.1-7.911.28-11.91.35-1.7.03-3.41.03-5.12.02.08 3.83.05 7.63-.13 11.49-.16 5.17-.32 10.3.1 15.48h.01c.21 2.6.45 5.17.64 7.74 6.38.04 12.71.05 19.22.17 7.44.09 14.9.34 22.37.62.09-1.319.17-2.63.27-3.95.56-10.58 1.44-20.91 2.28-31.3-2.92-.14-6.6-.3-10.12-.4-5.51-.17-10.6-.23-11.74-.24zm-64.24-1.43c.38 3.47.67 6.93.86 10.45.29 5.37.57 10.7 1.45 16.03h-.01c.44 2.65.91 5.25 1.33 7.87.27.03.54.05.82.08 9.5.95 18.96 1.84 28.54 2.01 2.03.03 4.04.05 6.05.07-.05-1.77-.09-3.53-.12-5.3-.16-3.98-.26-7.94-.34-11.88-.03-1.97-.06-3.94-.09-5.9l.03-5.88c.02-1.92.04-3.85.06-5.77-1.36-.02-2.73-.04-4.09-.09-7.83-.16-15.55-.59-23.25-1-3.76-.21-7.501-.44-11.24-.69zm-45.6-5.4c.74 4.32 1.34 8.62 1.79 13.02.56 5.55 1.1 11.07 2.22 16.56.46 2.23.92 4.42 1.37 6.62l.01.01c5.39.51 10.78.95 16.28 1.3 8.29.54 16.4 1.18 24.62 1.96-.19-1.619-.37-3.24-.54-4.86-1.24-9.9-2.13-19.64-2.97-29.42-2.99-.22-5.98-.45-8.97-.71-7.66-.68-15.311-1.5-22.96-2.63-3.62-.55-7.24-1.13-10.85-1.85zm-48.49-7.24c.22.92.43 1.85.66 2.76 1.78 7.35 3.57 14.7 5.36 22.09h-.01c1.19 4.9 2.36 9.761 3.54 14.61.369-.02.76-.02 1.16-.02 9.15.14 18.6 1.21 27.91 2.35 4.15.5 8.25.95 12.35 1.36-.17-1.14-.35-2.28-.51-3.42-1.84-11.12-3.29-22.07-4.82-33.06-1.16-.25-2.32-.5-3.48-.75-1.89-.44-3.76-.86-5.66-1.24-3.52-.71-7.06-1.3-10.62-1.8-3.55-.49-7.15-.87-10.73-1.29-2.54-.28-5.08-.56-7.62-.81-.97-.11-1.94-.21-2.92-.32-1.38-.17-2.71-.3-4.02-.39-.18-.02-.39-.05-.59-.07zm274.25-13.03c-.15 4.75-1.18 9.52-2.33 14.21-1.34 5.45-2.4 10.75-3.25 16.3-.13.89-.28 1.77-.43 2.65 1.72.17 3.44.32 5.16.49 5.46.54 10.92 1.09 16.38 1.63 2.82.3 7.04.49 9.41 1.29 1.35-8.38 2.53-16.79 3.55-25.2.29-2.42.59-5.18.88-8.06l-.01-.02c.03-.33.1-.81.08-.89-.01-.15-.06-.359-.13-.45-.11-.19-.39-.37-.98-.47-1.17-.19-2.68 0-4.27-.11-1.55-.1-2.97-.37-4.27-.52-1.26-.14-2.65-.21-3.85-.34-.32-.03-.61-.06-.92-.09h-.12c-4.93-.1-9.91-.25-14.9-.42zm-44.849-1.277c.055 4.517-.655 9.087-1.461 13.587-.99 5.52-1.73 10.87-2.23 16.46-.01.18-.03.35-.05.53 1.38.17 2.78.33 4.18.48 4.529.47 9.06.83 13.58 1.18 7.38.58 14.74 1.24 22.11 1.94 1.12-5.35 2.23-10.72 3.29-16.16.69-3.51 1.33-7.04 1.98-10.56.23-1.25.47-2.49.7-3.74.09-.48.2-.96.32-1.43.1-.37.17-.72.26-1.08-14.1-.5-28.38-1.22-42.7-2.09zm-44.751-3.953c.47 4.88.03 9.9-.54 14.85l-.01.03c-.6 5.3-.98 10.46-1.16 15.78.32.01.64.03.96.04 9.86.45 19.48.91 29.25 2.19 3.31.43 6.59.9 9.89 1.33.67-4.62 1.33-9.26 1.94-13.94.47-3.55.88-7.11 1.32-10.66.16-1.26.31-2.52.47-3.78.06-.49.14-.97.23-1.45.1-.5.18-.97.26-1.45-8.859-.54-17.72-1.13-26.54-1.76-5.38-.4-10.73-.79-16.07-1.18zm-49.27-3.69c.02.08.04.16.04.24.58 4.939.34 10.06.04 15.12-.35 5.76-.38 11.34-.15 17.12.01.37.02.73.03 1.1 1.169-.03 2.34-.04 3.5-.08 4.91-.16 9.87-.45 14.98-.41 8.9.08 17.71.67 26.56 1.11.34-4.22.66-8.45.95-12.72.25-3.63.45-7.27.66-10.9.07-1.28.15-2.57.23-3.86.03-.49.08-.99.14-1.48.08-.59.13-1.14.19-1.7-10.63-.78-21.2-1.55-31.76-2.33-5.13-.39-10.27-.79-15.41-1.21zm-45.16-3.81c1.14 4.9 1.47 10.05 1.67 15.15.24 6 .75 11.78 1.55 17.74.12.92.23 1.831.34 2.75 10.05.89 20.09 1.71 30.22 1.84 2.93.03 5.83.01 8.71-.03.05-5.03.1-10.06.15-15.14.03-3.69.05-7.4.12-11.1l.1-3.94c.01-.5.05-1.01.1-1.51.07-.74.13-1.42.19-2.09v-.03c-2.48-.2-4.96-.4-7.44-.61-8.32-.68-16.67-1.58-25.05-2.27l.01-.01c-3.56-.28-7.12-.53-10.67-.75zm-48.02-4.4c1.56 5.02 2.31 10.39 2.92 15.7.36 3.099.77 6.13 1.23 9.16.45 3.03.95 6.05 1.53 9.12.06.31.11.62.17.93 5.169 1.02 10.41 1.78 15.75 2.35 9.139.97 18.11 1.73 27.24 2.55-.47-5.55-.93-11.12-1.43-16.74-.35-3.83-.7-7.65-1.05-11.48l-.37-4.07c-.04-.52-.08-1.05-.09-1.57-.01-.58-.04-1.13-.07-1.68-3.23-.2-6.45-.38-9.67-.57-7.49-.43-14.98-.84-22.47-1.62-3.75-.4-7.49-.89-11.22-1.59v.01c-.82-.15-1.65-.32-2.47-.5zm-52.35-8.01.66 2.74 1.35 5.48c.91 3.65 1.85 7.29 2.81 10.93s1.96 7.27 3 10.88c.52 1.8 1.05 3.61 1.61 5.4l-.01-.01c.09.3.17.6.25.9.52-.07 1.1-.12 1.72-.13 4.88-.1 9.82.3 14.77.83 4.93.54 9.93 1.2 14.85 2.16 2.79.53 5.55 1.12 8.29 1.74 2.07.49 4.1.95 6.13 1.4-.69-4.93-1.4-9.87-2.18-14.85-.65-3.92-1.3-7.85-1.95-11.78l-.69-4.18c-.08-.53-.16-1.07-.21-1.61-.08-.77-.16-1.5-.26-2.23v-.17c-.29-.07-.59-.13-.88-.2-1.82-.43-3.63-.84-5.45-1.22-3.64-.76-7.31-1.42-11.01-1.98l-2.77-.4c-.9-.12-1.84-.22-2.78-.33-1.87-.23-3.75-.45-5.63-.67-3.75-.45-7.5-.93-11.24-1.44-1.87-.26-3.74-.53-5.61-.82l-2.81-.47-1.42-.28c-.23-.06-.43-.1-.65-.15.04.16.08.32.11.46zm22.21-48.71c-5.2-.78-10.19-1.36-15.16-.4-1.24.23-2.47.55-3.66.98-1.2.44-2.41.97-3.62 1.51-2.41 1.06-4.74 2.28-6.95 3.72-4.37 2.87-8.26 6.06-12.6 9.14-4.27 3.05-8.64 5.93-12.77 9.19-2.01 1.61-4.03 3.21-6.01 4.79l-1.52 1.16c-.24.18-.4.3-.55.46-.16.15-.29.32-.42.5-.5.72-.73 1.63-.63 2.56.12 1.07.72 2.13 1.74 2.71.12.07.25.14.39.2.059.03.15.06.2.08.03.01.06.04.1.04h.98c.76-.01 1.51-.02 2.25-.02 2.41-.03 4.82-.06 7.23.02 5.33.19 10.65 1.09 15.78 2.72 2.79.88 5.54 1.94 8.18 3.21l.01-.02c1.28.61 3.21 1.39 4.15 2.42 1.09-1.89 2.77-3.25 4.52-4.48 2.12-1.49 4.04-3.07 5.89-4.88 1.66-1.62 3.44-3.03 5.43-4.23s3.98-2.34 5.67-3.95c1.66-1.59 3.23-3.21 5.19-4.45 1.94-1.2 4-2.23 5.83-3.6 1.8-1.35 3.47-2.81 5.59-3.66 1.2-.48 2.44-.87 3.56-1.51.9-.5 1.74-1.11 2.58-1.72 1.86-1.35 3.79-2.57 5.79-3.7.78-.44 1.57-.87 2.36-1.29-4.21-.79-8.39-2.071-12.52-3.37-5.65-1.75-11.21-3.22-17.01-4.13z" fill-rule="evenodd"/>
  <path 
    d="m323.69 121.18-.26.06c-3.4.78-6.6 2.43-9.21 4.74l-.21.18c-.24.22 1.49 2.04 1.69 1.86l.18-.16c2.3-2.04 5.11-3.49 8.11-4.17l.23-.05c.27-.06-.22-2.52-.53-2.45z"/>
  <path 
    d="m339.49 119.74-.25.08c-3.27 1.04-6.8 1.21-10.15.48l-.27-.06c-.29-.07-.91 2.36-.56 2.45l.3.07c3.77.81 7.76.62 11.44-.55l.28-.09c.34-.11-.5-2.48-.79-2.38z"/>
  <path 
    d="m355.97 121.33c-3.4-1.9-7.35-2.78-11.24-2.51l-.31.02c-.36.03-.09 2.53.21 2.5l.27-.02c3.4-.24 6.87.53 9.84 2.2l.23.13c.26.15 1.56-1.99 1.25-2.17l-.26-.15z"/>
  <path 
    d="m371.39 125.66-.27.04c-3.46.46-7.04-.35-9.98-2.22l-.23-.15c-.25-.17-1.69 1.89-1.38 2.1l.27.17c3.42 2.17 7.62 3.12 11.64 2.58l.31-.04c.37-.06-.06-2.53-.36-2.48z"/>
  <path 
    d="m389.08 128.34c-3.25-2.74-7.86-3.76-11.97-2.66l-.33.09c-.38.11.4 2.5.69 2.41l.26-.07c3.36-.89 7.08-.07 9.74 2.17l.2.17c.22.2 1.95-1.63 1.65-1.89l-.25-.21z"/>
  <path 
    d="m404.61 134.37-.26-.02c-3.3-.29-6.51-1.47-9.21-3.38l-.21-.15c-.24-.17-1.75 1.83-1.48 2.03l.24.17c3.06 2.16 6.7 3.5 10.43 3.83l.29.02c.35.02.48-2.48.19-2.5z" />
  <path class="plane"
    d="m478.97 105.48c-.09-.23-.15-.32-.45-.7-.33-.18-.48-.21-.62-.24-.07-.01-.15 0-.22 0-.04 0-.07 0-.1-.01h-.15-.01-.03l-.21.02s-.09 0-.13.01c-.03-.08-.05-.15-.06-.18.01 0-.04.02-.08.03l-.25.09-.45.15c-1.43.14-2.88.28-4.41.43-2.27.21-4.54.44-6.8.69-2.67.31-5.34.65-8 1.04-2.05.32-4.1.65-6.13.97-1.29.22-2.59.43-3.89.65l-1.95.35-.98.19-.49.1-.25.05c-.01 0-.07.01 0 0 .02 0 .05 0 .07.01l-.36.04c-3.01.64-6.04 1.28-9.06 1.93l-4.21.92c-1.4.29-2.82.51-4.22.77-1.41.24-2.8.53-4.21.73l-2.11.32-1.05.16-.26.04h-.08l-.14.04c-1.26.23-3.09.44-4.46.82-.08 0-.15.01-.23.02l-4.79.57-6.76.85-3.38.46-1.69.25c-.88.13-1.94.3-2.86.47-1.08.2-2.09.45-2.57.79-.25.16-.45.32-.55.48-.12.19-.25.26-.36.62.09.33.19.4.27.54.1.12.17.25.3.4.12.14.36.32.61.49.38.18.71.36 1.26.51 1.01.31 2 .63 2.93.99l.84.36.73.34c1.94.95 3.78 2.14 5.49 3.47.86.66 1.63 1.37 2.42 2.13s1.52 1.59 2.48 2.42c.48.41 1.04.82 1.68 1.13.4.2.83.33 1.26.44.09.2.18.4.26.61.06.17.14.33.22.48l.67 1.2c.62 1.13 1.22 2.29 1.72 3.48 2.16 5.17 2.87 10.59 3.39 16.1l.02.53.11.97c0 .34.15.65.34.92.18.28.41.52.67.72 1.02.81 2.68.77 3.57-.19.52-.49.69-.69.97-.91.29-.28 2.62-2.55 3.45-3.11.48-.34.93-.62 1.42-1.05.38-.33.77-.65 1.22-.94.55-.35 1.11-.67 1.68-.98.67-.36 1.35-.71 2.04-1.04.53-.26 1.06-.52 1.6-.74 1.5-.59 3.03-1.16 4.58-1.69.77-.27 1.55-.53 2.32-.77l1.16-.37.58-.17.29-.09.07-.02h.02l.04-.02c.3-.13.74-.21 1.08-.41 1.96.56 3.94 1 5.94 1.24.07 0 .2.03.33.05.19 0 .29-.02.39-.04.1.03.22.05.35.04 1.32-.14 2.47-2.16 3.37-3.31 1.52-1.93 3-3.9 4.48-5.86 1.41-1.77 2.57-3.69 3.79-5.58 1.21-1.89 2.39-3.8 3.55-5.72 1.06-1.73 2.1-3.47 3.24-5.14 1.43-2.09 3.06-3.96 4.63-5.92.52-.64 1.01-1.29 1.48-1.96l.43-.62.66-.99c.44-.67.87-1.33 1.27-1.99.4-.65.77-1.29 1.01-1.84.25-.55.34-.97.34-1.28s-.05-.54-.12-.75zm-71.36 21.98c-1.13-1.1-2.41-2.24-3.77-3.18-1.91-1.33-3.88-2.51-5.98-3.48l-.79-.35-.61-.25-.43-.15c-.27-.12-.6-.13-.76-.31.3-.18.73-.16 1.03-.2h.22c.1-.02 0 0 .44-.05.64-.07 1.28-.13 1.92-.2 5.11-.49 10.3-.96 15.29-1.95 1.34-.1 2.83-.4 3.98-.55 1.71-.23 3.42-.43 5.13-.72 1.71-.3 3.41-.6 5.11-.9 1.29-.2 2.56-.51 3.83-.8l3.81-.89c2.52-.62 5.05-1.23 7.59-1.85l-.24.03c.14-.02.28-.04.42-.07l.2-.05.4-.1.8-.19 1.61-.38c2.76-.64 5.54-1.24 8.35-1.67 3.51-.54 6.97-.74 10.46-.96.65-.04 1.29-.1 1.93-.15-1.69.54-3.41 1.06-5.1 1.6-3.01.94-6.02 1.92-8.99 3.04-6.06 2.27-11.28 5.43-16.95 8.11-1.43.69-2.88 1.3-4.36 1.93-1.46.65-2.91 1.3-4.37 1.95-2.89 1.3-5.79 2.52-8.73 3.52-1.48.5-2.95.95-4.42 1.32-.73.17-1.51.38-2.1.43-.6.07-1.21 0-1.75-.16-.54-.15-1.01-.45-1.54-.87-.52-.42-1.06-.96-1.64-1.51zm9.63 14.84c-.83-1.98-1.52-3.89-2.15-5.95-.39-1.28-.91-2.55-1.76-3.59.59-.1 1.09-.23 1.61-.35 4.54-1.15 8.73-3.07 12.82-4.99 2.05-.96 4.06-1.94 6.11-2.78 2.08-.85 4.22-1.76 6.3-2.71 2.3-.99 4.56-2.04 6.83-3.08 2.26-1.06 4.48-2.08 6.75-3.07 1.1-.48 2.27-.96 3.41-1.36.67-.24 3.64-1.39 6.89-2.52 1.61-.57 3.27-1.12 4.76-1.61l-.11.07c-1.85 1.19-3.77 2.31-5.67 3.46-3.85 2.34-7.3 4.99-10.91 7.67-1.83 1.36-3.72 2.58-5.62 3.84-.98.63-1.87 1.32-2.82 1.88s-1.91 1.13-2.87 1.69c-1.88 1.17-3.83 2.18-5.77 3.18-.97.5-1.95.98-2.94 1.46-.49.23-.99.47-1.49.7l-.75.35-.38.17c-.15.06-.19.09-.48.21-.53.21-1.05.43-1.58.64-.25.11-.55.2-.75.31l-.46.38c-.18.13-.24.24-.32.34-.08.12-.17.19-.23.35-.08.17-.12.4-.12.62-.06.03-.1.08-.12.14l-.11.47c-.35 1.52-.67 3.05-1.05 4.51-.36 1.49-.85 2.79-1.48 4.23-.6 1.41-1.24 2.81-1.93 4.15-.34.67-.71 1.33-1.09 1.95-.21.34-.45.69-.68.98-.04-.18-.08-.35-.12-.53-.43-1.87-.37-3.75-.45-5.68s-.52-3.77-1.27-5.54zm21.81 1.42c-1.8.59-3.53 1.38-5.16 2.34-.73.44-1.46.89-2.22 1.25-.95.46-2.01.69-3.03 1.04-1.8.62-3.15 1.93-4.53 3.18-.37.33-.75.64-1.14.94.03-.07.07-.13.11-.2.73-1.43 1.38-2.86 2-4.32.62-1.41 1.23-3.04 1.6-4.58.33-1.27.6-2.51.88-3.75l2.38.76c2.36.76 4.7 1.58 7.06 2.47.74.28 1.48.55 2.23.82-.06.02-.12.04-.18.06zm35.03-33.79c0 .14-.13.42-.36.77l-2.06 2.99-3.25 4.69-2.49 3.62c-2.33 3.26-4.68 6.6-6.98 9.99-1.11 1.72-2.37 3.32-3.59 4.95-.61.81-1.21 1.63-1.82 2.44l-.9 1.22-.45.61-.11.15-.03.05-.06.09c-.53.8-1.43 1.88-1.87 2.83-.11-.04-.22-.08-.34-.12-.28-.11-.56-.22-.86-.33-.41-.16-.82-.31-1.24-.44l-3.27-1.01c-3.08-.95-6.16-1.9-9.24-2.85-1.65-.53-3.29-1.06-4.94-1.59l-.58-.21c-.09-.01-.16-.12-.11-.21.05-.1.17-.09.26-.12l.26-.08.12-.04.57-.22c.81-.32 1.62-.65 2.42-1 1.6-.7 3.18-1.45 4.72-2.27 1.55-.81 3.05-1.7 4.5-2.69l2.19-1.45 1.1-.73 1.05-.79c2.64-1.96 5.59-3.82 8.47-5.74 3-1.88 5.99-3.77 8.91-5.8.71-.49 1.47-1 2.2-1.45.44-.27 2.34-1.54 4.36-3 .5-.37 1.01-.75 1.51-1.11.23-.17.45-.34.67-.51l.16-.13c.21-.18.41-.34.52-.42l.25-.17c.08-.03.16-.15.29-.11.06.07.02.14.02.2z"/>
</g>
</svg>